<svg xmlns="http://www.w3.org/2000/svg" viewBox="0 0 1261.6 543.9"><path d="M100 201.8c2.4-1 3-.5 4.9-2s7-6.7 9-7.9 3.6-1.2 1 1.3a59 59 0 0 0-7 6.8c1-.6 3.9-2.8 7.8-6s3.8-2.4 4.4-4.4l1-3s9 2.4 9.8 2.4.9-.4 1-1.2.6-2 1.7-2 .7 1.5 1.4 1.4a10 10 0 0 0 3.3-1.7c1.8-1.1.5-1.7.5-1.7l2-.9a61 61 0 0 1 11.9-1.7c2.2-.2 8.6-1.8 10.5-2s2.1-1.5 4.9-1.4 4.9.7 3.3 2-6 3.1-3.5 2.8a54.1 54.1 0 0 0 9.4-2.2c3.3-1.2 9-4 10.9-4.6s3.2-.1 5.6 1.4a9.5 9.5 0 0 0 4.7 1.8c.8 0-1-.8-.9-1.9a6 6 0 0 0-1.9-3.4c-.6-.6-.3-1-1.4-1.8s-2.5 0-.3-1.7a16 16 0 0 1 6.6-4c3.1-.7 4.8 1.7 7.4 1.1s3.4 0 7.8-1 2.6-.8 7.7-2 3-1.3 3.5-3.4a3.5 3.5 0 0 1 2.8-3 20.3 20.3 0 0 1 5.7-.7c0 .4-1.1 2.8 0 3.5a23 23 0 0 0 5.2 1.3s-1.4-2-1.5-2.2-.8-1.9-.4-2.3 3.6-.8 4.7-3.9-1.9-2-1.9-2-1.1.3-.8-1 3.4-2.7 3.4-2.7l-.3-.3c-.7-.7-2.8 0-5.2.6s-4 .7-4.9-.5a30.1 30.1 0 0 1-2.3-6.2c-.6-2 2-2 2-3.2a21 21 0 0 0-2.8-7.5c-.9-1-.1-3.8-.3-5.4s2.5-1.7 2.5-1.7c-.6-.4.1-2.2 3.2-3.8a41 41 0 0 1 9.3-2.4s-.6.1-1.7 1.9.4 3.8-1.3 6a16 16 0 0 1-7.6 3.3s2.5 2.3 2 3.4a8.8 8.8 0 0 0-.5 3s5.2-.4 6.1 1.7 3.4 1.8 4.6 3.7-1.5 4.3-.7 4.4a5 5 0 0 0 2.7-.2l4.3-.8a1.7 1.7 0 0 0 .4 2.2c1.2.8.7 1.7 1.1 2.8s1.7 1.9 2 1.6a16.3 16.3 0 0 0 1.6-5.3c.1-1.4.2-2.2 1-2.4a9.1 9.1 0 0 1 4.7 1.4c.5.5 1 1.4-.2 3.6s-.7 3 .8 3.3a24.5 24.5 0 0 0 4.2.3c2.7.2 2.2.2 3.6-.5s-1.4-2.8-1.3-3 3.6-1.2 2.4-2.4-2-1.6-.6-2.7l2.5-2a12.4 12.4 0 0 1-2.9-2.6c-1.7-2 .6-2 5.2-2.9a15.6 15.6 0 0 1 7.7.5c2.6.2 1.1 1 2.2 2.1s-1.6 2-1.6 2-1.7.7-1 1.7a17 17 0 0 0 3.5 3.3c1.7 1.4.3 2.9-1.4 4.7a13 13 0 0 1-6.4 3.5c-2.4.6-3.3 1.5-3.5 1s-1.6-.5-2.8 0-4 2.1-3 2.1 4-.7 3.2 1-1.8 2.1-4.1 2.5l-6 1.3-8.6 2a63.2 63.2 0 0 0 9.4.6 27.7 27.7 0 0 0 8-1.7s-1 2.4-2.4 5.1-3.3 2.2-4.8 2.7-2.2 1.7-5 2.7-9 1.8-8 1.9a9.7 9.7 0 0 0 3.2.2 8.9 8.9 0 0 1 4.5.1c1.6.5-.7 1.3-2.5 2s-2.3 1.2-3 2.3l-3.6 6.5a9.8 9.8 0 0 0-1 5.4c.1 2.1-1.6 5.2-.4 5.4s5.2-.8 7-.5 4.8 3.4 6.5 4.5 2.9 1.8 4 .4a9 9 0 0 1 6.8-2 43.7 43.7 0 0 1 10.7 2.2 19.7 19.7 0 0 0 8.2-.7c3.4-.4 4 .4 4 .4s3.4-.7 2.2.7-1.8.4 0 1.9a6.4 6.4 0 0 1 2.4 5.1c-.2 1.3 4.6-.5 6.8 0s3.3 4 4.2 3.2 2.5-1.8 2.5-2.9a13.8 13.8 0 0 0-1.2-3.8 13.1 13.1 0 0 0-3.2-5.4c-1.4-1 1.6-2.2 1-2.5s-.8-1.5 1.3-2.4 2.2-.6 3.2-1.5.5-4 .5-5.2a9.2 9.2 0 0 0-1.9-4.1 27.7 27.7 0 0 0-4.3-3.6c-1-.4-2-.4-.3-2.8s.5-1.7 0-2.2a27.3 27.3 0 0 1-1.9-3c-.7-1.3.3-3-1-4.7s-1.9-1-1.8-1.5a33 33 0 0 1 8.6-2 29.8 29.8 0 0 0 6-1.7 15.3 15.3 0 0 1 5.3.6c2.2.5 3 0 4.2 1a4 4 0 0 0 4 .9 15.6 15.6 0 0 1 4.6-.3 2.4 2.4 0 0 0-.7 3 22.6 22.6 0 0 1 .7 4.3c.2.9.8.8 1.8.7s4 1 6.8 1.2 3.5-.2 4-2 .8-1.7 1.9-2 1.5-.1 1.9-.5-1-1-1-2a8.1 8.1 0 0 1 2.4-4c1-1.2 2.3.3 3.7 1.6s6 5.6 7.4 7 2.8 1.3 1.8 3-1.5 2.6.7 3 4 1.1 4.1 2.3-.3 1.3.4 1.4 3-1.1 4.8-.9a19.5 19.5 0 0 1 5.4 1c1.3.8 1.3 1.1-.4 1.9a37.1 37.1 0 0 0-4 2c-.8.6-2 1.5-1.9 2.1s0 1.6 1.2.6a21.4 21.4 0 0 1 4.8-2.8c1.6-.6.4 0 1.9-.5a19.3 19.3 0 0 1 5 0c2.2.1 1.8 1.2 1.4 2.1s-.6 2 .4 2.7 0 2-1.6 3.4a11.2 11.2 0 0 1-5.7 2.7 11.9 11.9 0 0 0-5.7 4c-1.7 1.8-2.8 1.7-5.7 2.3s-2-.7-2.8-.3a15.4 15.4 0 0 1-3.7 1.9 102.8 102.8 0 0 0-10.3 2.8c-2.3 1-1.3 2-1.7 3.1s-1.4 1-3.1 1.8a13.7 13.7 0 0 0-5 6.3 20.2 20.2 0 0 1-4 5.4 16.9 16.9 0 0 0 4.4-3.8 74.3 74.3 0 0 1 8.1-7.3 19.8 19.8 0 0 1 6.4-3.5c1 0 3.6.9 3.7 1.6s-.5 1.3-1.9 2.8-4 .8-3.7 1.3a4.1 4.1 0 0 0 3 1.3c1.4 0 1.5 1.1 1.6 1.7s-.4 1.5 3 2.8a11.3 11.3 0 0 0 7.5.5c2.1-.5 1.1.4 2 .1s.8-1.5 1-2.6a4 4 0 0 1 1-2.8c.8-.6 1.2-1.5 1.8 0a4.7 4.7 0 0 1-1.3 4.7c-1 .7-.6 1.3-.6 1.7s-1.1.8-4 2.7-3.7 2.3-4.3 2.3-1.6.5-2.9 1.8-2.5 3-3.6 3.1-2.1 0-.9-1.4 1.4-3.1 2.8-4a7.8 7.8 0 0 1 3.3-1.1c1.2-.3.6-.7 1.4-1.4s-.8-.3-2.5-.2-.7-1.2-.7-1.2l-1.6 1a28.4 28.4 0 0 1-3 1.8c-.7.2-.5.5-.6.8a13.2 13.2 0 0 1-2.6.8 5.5 5.5 0 0 1-2.8 3c-1.8.6-.5.2-1.8 1s-1.2-.3-1.5 0a9 9 0 0 1-1.7 1.8 5.9 5.9 0 0 0-2.6 5 6 6 0 0 0 1.1 4.8c0 .5-2 0-2.4.6a9.2 9.2 0 0 1-3 2.6 22.3 22.3 0 0 0-5 2.7c-.7.8-.5 1.6-.6 2.9a24.3 24.3 0 0 1-1.3 4.5 1.7 1.7 0 0 0-1.3-1.8c-1.5-.5-1.5-1.3-1.5-1.3a4 4 0 0 0 .7 2.3c.8 1 2 2 1.9 3.3a6 6 0 0 1-1.6 3.8c-.9.7 0-.9-.1-1.9s-1-1-1.5-1.4-.9-1.7-.5-3.6-.9-.6-1.5.8a4 4 0 0 0 1 4.8c1.6 1-.6 1.5.8 3.3s-.4 3.2 0 3.5 1.4-.5 2.1.4-.8.8-1.2 1.2-.1.7.3 1.1 1 0 .7.3a5.2 5.2 0 0 1-1.9 1.6c-1.1.6-1.4.2-2 1l-1.6 2.6c-.6 1-1.3.9-2 1.6l-1.8 2.2a25.2 25.2 0 0 0-4 4.2c-1 1.6-.5 2-.6 4.2s3 5.6 5.2 8.8 2.5 2.1 2.6 3.3a5.8 5.8 0 0 1-1 3.7c-.8 1-1.6-.2-3.2-.6s-.6-1.3-2.3-2.6a5.1 5.1 0 0 1-2.2-3.1 12.6 12.6 0 0 0-2-4 4 4 0 0 0-5.1-1.2c-2 1.2-1.6.8-2.9.8a13 13 0 0 0-6.2 1 46.9 46.9 0 0 1-8 2c-1 .5-1.8.8-1.6 1.3s-.3.8 1.7.8 1.9.4 2 1-1.7.1-2.5 0-1.3 1-2.6 1.3-1.8-.6-3-.4a13 13 0 0 1-2.9.4 12.3 12.3 0 0 0-4.1.2 41.6 41.6 0 0 0-7.6 6.5 13.5 13.5 0 0 0-3.6 5.2c-.3 1.3-.3 1.4 2 2.5s1.5 1.1 1.4 2.2-1 2.5-1.5 5.3.4 3.8 2.7 5.7a23.8 23.8 0 0 0 5.7 3.8 15 15 0 0 0 4 1.5 4.8 4.8 0 0 1 2 .4c.7.3.6.5 2.2-.4a24.2 24.2 0 0 1 4-2 5.6 5.6 0 0 1 3.2-.3c.8.3.8 0 .7-.3a5.9 5.9 0 0 1 .4-1.7 14.8 14.8 0 0 0 1.2-3.8c0-1-.5-3.1 1-3.7a51.5 51.5 0 0 1 8-2.7c3.2-.6 2.2 1 1.7 2.4s-.8 1.8-.6 2.8.7.9-.2 1.7-.5-.2-.7.4a6.4 6.4 0 0 1-1.4 1.7c.2-.1 1 .9 1 1.4l.5 2.2c.4 1.3-2.6 3.5-2.5 3.5a7.9 7.9 0 0 0 3-.2 16.3 16.3 0 0 1 5.8-.7c2 .2 5.1-2 8-1.5s2 1.2 2.4 2.1a25 25 0 0 1 1.5 5c0 .8-.6 3.2-.9 4.8s2.4 2.2 5 2.9a22 22 0 0 0 5.9.7c1.2 0 3-2.2 7-3a6.3 6.3 0 0 1 6 1.8 13 13 0 0 1 1.2-4.5c1.3-2.8 1.2-3.5 3.5-4.8s3-1.6 6.8-3.5 3.2-1 5.3-1.3a66.6 66.6 0 0 1 12-.8c5.1.2 12.5-.9 15.5-.4s4.8 2.9 8.1 4.6 7.3 3 9 3.8a114.5 114.5 0 0 0 12.4.6 8.3 8.3 0 0 1 5.4 4c.5 1.4 2.5 1.9 5.2 2.4a8.4 8.4 0 0 1 5.8 4c2.2 2.5 1.8 3.3 4.2 3.7s18.9 1.6 23 2.4a100.9 100.9 0 0 1 11 4c1.5.3 3.8-.8 4.9-.4s-.3 3.2 1.3 5 1.6 1.8 1 3.3-3.4 5.2-4.4 7a14.2 14.2 0 0 1-4.9 4.1c-1.4 1-2.8.4-1.3 1.6s.4 2.6-.5 4 .2 1.1.4 5.2 1.1 8.5.8 10.3-3.7-1.1-6.6 3.1-3.4 7.3-5.3 8a27.8 27.8 0 0 0-7.8 5 9.2 9.2 0 0 0-2.4 4.3c-.7 2-1.1 6.2-1.8 8.8a21.3 21.3 0 0 1-5.7 8.2 82.9 82.9 0 0 0-6.7 10.5l-2 3c-1.1 1.4-7.3-.9-5.5.7 1.3 1.1-.6 0 .5 1.2s1.8 1.4.3 4-3.9 2.5-5.4 3.2-4-.8-4 .2a6.1 6.1 0 0 1-1.7 4c-1 .9-4.1 2.3-4 2.6 2.8 6.3 6 6.4 2.7 6.7-9.2 1-3.2-2.3-7 11.1-.6 2.1-1.7 1.3-1.1 3.5s.7 3.9 2.3 5 .6 1.2-1.1 3.5a16.3 16.3 0 0 0-3.3 5.3c-1.4 3.2-3.3 3.5-2.2 5.5s2 5.1 3.8 8 4.1 2 8.3 3.4 4.4.2 6.4.4-1.2 1-4.4 2.2a22.3 22.3 0 0 1-7.6 2.2 43.5 43.5 0 0 1-10.5-2.8 20.3 20.3 0 0 1-7.3-4.6c-1.5-2-2.8-4.2-5-7s-1.4-4.9-2.3-11.8a100.3 100.3 0 0 1-1.4-16.2c.2-4-.2-20.9-.2-25.3s.5-22.4.3-25.1a58.4 58.4 0 0 1-.3-7.7 38.7 38.7 0 0 0-1.5-8.5c0-.3-.4-.4-1.9-2.8a8.1 8.1 0 0 0-5.5-3.7c-2.4-.6-5-1.5-6.9-2.2a26 26 0 0 1-6.4-3.1 40 40 0 0 1-5.8-6.3 89.6 89.6 0 0 0-9.5-9 20.5 20.5 0 0 1-6.5-6.5c-2.4-3.6.4-4.3.4-6.7a30.8 30.8 0 0 1 2.5-8.4c1.2-3.6 3.5-5 4.4-8.1s-.3-2.9-1.4-5.4-.4-2.3-1.7-3.6-2.2-2.8-3.2-3.1a2.8 2.8 0 0 0-3.1.6c-.6 1-1.5 3.5-2.4 3.9s-1.4-.4-2-.8-3.3.3-4 0-2-.1-3-.3a47.3 47.3 0 0 1-6-1.2 5.7 5.7 0 0 1-3.3-3.5c-.4-1.8-2.5-2-7.3-3.4a28.8 28.8 0 0 0-12.2-.8 24.3 24.3 0 0 1-10.3-2.4 6.4 6.4 0 0 0-5.7.2 32.9 32.9 0 0 1-12 .9 107 107 0 0 1-11 .2c-2.5-.5-6.4.3-9-2s-1.8-1.3-2-3.9-5-3.3-8.4-4.8-5.5-1.1-7.7-3.5-4.3-1.6-7.6-2.8-4.2-3.6-6.1-5.5-10.3-2.8-10.3-2.8l4.5 4.4a59.7 59.7 0 0 0 7.6 6.4c3.1 2 5.2 2 8.1 4.2s1.6 4.4.5 3.5-4.2-.4-4.6-1.6-1.4-1.9-2.3-2.7a35.3 35.3 0 0 0-7.6-1.8c-3.3-.8-5.5-1-3.7-1.5s4.6-.2 3.9-.8-4.7-2.1-6.8-3.4a36.5 36.5 0 0 1-5.6-5.4 15.7 15.7 0 0 0-11.7-2.6 4.6 4.6 0 0 1-5.5-1.8 33.7 33.7 0 0 0-4.5-5.3c-1.8-1.2-9-5-9.9-7s-4.6-7.7-4-11.8a28.6 28.6 0 0 0-3.3-13.1c-.8-1.4-5.4-3.1-5.8-4.3s2-1.2 3.6-1.4l5.2-.4a33 33 0 0 0-5.7-3.2 26.9 26.9 0 0 0-9.2-.1 11.2 11.2 0 0 1-6.5 0l-4.4-2.9c-1.2-.8-5-.8-6.1-1.6s-1.9-3-3.4-3.8a4.7 4.7 0 0 0-4.9.4c-1.5 1-2.5.2-4.5-1a11.4 11.4 0 0 0-6.3-.5 13.5 13.5 0 0 1-5.6-2.2 30.6 30.6 0 0 0-8.6-2.7c-1.9-.2-18.5 2.4-18.9 2.6a45.8 45.8 0 0 1-5.9 2.7c-1.3.2-6.3-.5-8.6-.2a4.3 4.3 0 0 0-3.6 4.1 30.2 30.2 0 0 1-5.9 9.3c-2 2.4-4.1 3.4-4.2 2.7a9.8 9.8 0 0 1-.5-3.7c.2-1.9.5-2.6 2.8-4.7s2.2-2.2 1.1-1.7-1.9.7-.1-1.1 2.5-2.4 2.1-3.1-4.2 3-6.4 6a24.8 24.8 0 0 0-4.6 9c-1.2 4 1.1 1.7-.2 4.6s-6.6 10-8 12.5a77.8 77.8 0 0 1-11.8 12.2 21.4 21.4 0 0 0-5.6 5.2c-1.2 1.8-5.3 4.2-4.2 2.8s3-4.2 4.4-5.8 5.6-5.3 6.8-6.4a32 32 0 0 0 5.7-7.2 40.2 40.2 0 0 0 2.4-7.2c.6-2.2.6-3-1.9-1a18.2 18.2 0 0 1-7 3.2c-1.7.3-4.7 3.6-6.4 3.6s-.9-2.2-2-2.5-4 1.5-6 2.2-5.3.9-6.2-1-3.7-2.7-3.3-4.6a10.9 10.9 0 0 1 3-4.8 35.3 35.3 0 0 1 6.7-5.5 7.2 7.2 0 0 0 2.5-2.8c.6-1-3.4-2-3.4-2l1.3-1.5c1-1-.4-1.8-2.4-.6s-5.6 4.7-8.1 6.5-6.3 3.3-6.6 2.4 0-1.6-1.3-1.8-2.3-.5-1.5-1.3l5.7-6a11 11 0 0 0 5.3-.3c2.5-1 6-6.4 6-6.4-3.7.2-3.2-.5-3.2-.5a36.6 36.6 0 0 1-6.6 2.3 4 4 0 0 1-3-1.5c-.7-.7-6 1-5.4-1.1s3-3.9 4-6.2a19.3 19.3 0 0 1 5.3-9.5c4.1-3.8 9.3-8 11.3-10.4s3.8-1.8 4.9-2 7.1-3.5 9.5-4.6 3.6.7 4.6.7 22.4-8.6 22.4-8.5c0 0 18.1-7.4 22-8l11.3-1.5c3.8-2 2.2-5.2 4.6-6.2M333.5 49.1a13 13 0 0 1-8.6 9 242.1 242.1 0 0 0-22 11c-.5.4 1.7 3.1 4 4.2s4.4 1.7 6.5 2.9 5 .3 7.8 1.4 4.4.2 11-1 4.9-.6 12.2-1.8 15.2-2.1 18-1 7.5 6.4 10.4 9.6 8 8.5 8 9-1.6 5.4-1.5 6 1.6 1.7 3 2.5.8 1.7.7 2.6 1.8 3 2.1 3.2 3-2.8 5-3.5 7.5 1.3 7.8 3.3c.8 4.6 2.3 2.8-7.4 9.9a10.2 10.2 0 0 0-.3 9.1c1.5 2.5 4.6 5.2 7.2 8.6a106.3 106.3 0 0 0 11.6 10c2.2 2.1 3.3 5.4 7.5 5.5s8.4.6 11.5.7 5.1.4 6.3-1.8a166.9 166.9 0 0 0 4.7-16.2c1.7-6-1.2-7.3 4.3-9.3s14.4-5.6 16.7-6.7 1.3-6.5 6.6-9a77.5 77.5 0 0 1 11.2-4 96.5 96.5 0 0 0 17.6-8.1c5.2-3.2 6.8-2 8.5-4.5s-2.4-5.9-3.2-9.5 1.4-4 2.2-7.4a10.5 10.5 0 0 1 5.3-8.3c4-2.6 6.3-4 5.3-6A28.3 28.3 0 0 1 510 52c-.2-2.3.7-1-1.4-4.1s-2-3.5-.6-6.7 6-2.7 5.5-4-7.4-2.8-7.8-6.6a6 6 0 0 1 1.9-6c1-1 12-8 12.8-8.5s-.3-2.1 5.2-4.4 7.5-3.5 9.6-4.2 5.5-.8-1.2-1.7a38 38 0 0 0-12.5-.6c-4.3.6-5.7 2.3-13.4 3.4a92.2 92.2 0 0 0-16.3 4.3s2.5-1.8.1-3 5.4-6.9 6.7-7.6-11-1.6-17.4-1.7-19-1.4-26-.2-17.5 2.3-21 3.6-2.6 4.1-6.5 4.8-11.6 0-17.3 1.4a141.3 141.3 0 0 0-15.3 5.6c-1 .3 3.8 1.4 6.8 1.4a16.5 16.5 0 0 1 7.5 3.4s-8.2-.6-16.5-.8a61.4 61.4 0 0 0-20.6 4 80.3 80.3 0 0 1-13.8 4.4 50.5 50.5 0 0 0-16.7 8.7c-3.4 2.3-14 9-16.7 10.6s-1.5 2 1.7 1.8l6.7-.4m-146.1 97.2c1.6 2.2 2.7 5.7.3 4.8s-5-3.5-7.8-1.2-6.2 3-5.8 2.5-.6-1.6-2.3-1.4-2.5 1-4 2.2-6.4 4-4.6 2 .8-2.2-.4-3.3-6 3-8.4 5.4a30.2 30.2 0 0 0-4.7 7.3c-1.2 2 .4 2.6 3.2 2.2s7.2-1.4 4 .6-5.8 3.7-3.7 3.8a20.5 20.5 0 0 0 8.2-2 32.7 32.7 0 0 1 10.7-3.5 47.1 47.1 0 0 0 8.3-1.7 21.7 21.7 0 0 1-4.8 2.8c-3.2 1.5-9.4 3.1-12.4 4.6s-7.6 3.7-6.1 4a14.6 14.6 0 0 0 7.5.8 53.6 53.6 0 0 0 7.7-2c2.7-.4 2 2 2.7 2.2a60.6 60.6 0 0 0 10-4.3c4.6-2.1 2.7-2.1 6.3-4s3-3.9 5.1-5 1 .8 3.7.4a34.3 34.3 0 0 0 4.3-.3c3-.5 2.6.4 5.3-.6s5.6-3.2 5.1-3.3a1.4 1.4 0 0 1-1-1.6c0-1-2.8 1-3.7 1.8s-1.4-.9.7-2.4a14.4 14.4 0 0 1 5.8-1.7c1.4-.4-.6-2.8-3.3-2.6a49.9 49.9 0 0 1-8.3-.7c-4.2-.3-2.4-1.5-4-3s-5.9-6.5-8.3-6.8-4.5.6-7 .3a7.2 7.2 0 0 0 1.7 3.7m-59.2 15.6c1.6 1.5 1.3.3.2 2.9s.2 3-.5 4.8-3.3 5-2 5.7a40.8 40.8 0 0 0 6.6.2c1.6.3 3.6 1.3 5.8-.1a36.6 36.6 0 0 0 4.5-3.4c1.5-1.2 2.7-2.4 2-4s-.8-2.2-.1-2.3 2 .2 2.3-1a10 10 0 0 1 1.6-4.1c1-1.2 4-3.2 5.3-4.7a41 41 0 0 0 4.2-4.4c.5-1.1-1.9-1-3.3-.9a15.4 15.4 0 0 0-6.6.2c-3 1-4.2 3.3-4.3 2.5s-2.4-.3-3.8-.2a16 16 0 0 0-6.6 1.8 62.8 62.8 0 0 0-8.4 4.2c-2.5 1.5 1.6 1.4 3.1 2.8m97.4-7.8c-.3.6-2 1.5-2.8 2.7s2.4-.3 3.6-.3 2.3.4 3.2.4a24.6 24.6 0 0 0 7.7-2.5c1.8-1.2 2-1.5 1.7-1.8a31 31 0 0 0-8.3-2.1c-3.2-.3-3.3-.3-3.8.2s-1 2.9-1.3 3.4m-19.4-17.2c-1.7 1.2-2.9 2.4.7 2.5a61 61 0 0 1 7.3 1.2c2.5.3 4.2 2.7 8.4.2s5.6-4.5 5.9-6-1-1.3-2.5-2.2a3.6 3.6 0 0 0-4.2-.4l-3 1a13.4 13.4 0 0 1 3.4-3.3c2.3-1.6 0-1.6 1-2.7s-3.4-.4-5.2.4a23.4 23.4 0 0 1-5 1.3c-3 .8-7.3 4.1-6.9 4.7s2.6-.3 5-.1 3 0 1.5 2.8-3.4.4-4.2.3-.4-1-2.2.2m-14.8 0c-3 1.2-3.7 3-2.4 2.9a6.1 6.1 0 0 1 4.2 0c2.4.7 4.3 1 4.3-1.5s-1.3-3.2-6-1.4m-56.7-.6c-2.8 3.1-3 4.9-5.3 7s-1.3 3-.2 3.4 3.6-1.4 4.7-2.3 1.8-2.3 2.8-2 3.3-3.6 4.2-5a12 12 0 0 1 3-3.2c.3 0-.9 1.6 0 2.3s3.4 0 5.1-2.4-.8-3.1.6-5 2.9-2.2-1-2.1a7.1 7.1 0 0 0-6.1 2.9 29.8 29.8 0 0 0-7.8 6.4m22.6-4.3a21.6 21.6 0 0 0-5.8 3.3 9.7 9.7 0 0 0-3.8 6.8c-.3 1.6.8 1.3 4.1 1s7.2-2.6 7.5-4.9 2.3-.2 2.1 1 2.1-.7 3.3-1.5a29.6 29.6 0 0 1 5.1-2.4 24.3 24.3 0 0 1-5.6 4.6 72.4 72.4 0 0 1-6.5 3.5c-.9.4 1.2.7 5.2 0s5.7-3.6 10.8-6.9 4.7-3.3 6.7-3.6a20.8 20.8 0 0 0 5.8-2.9c2.1-1 3.2-.7 3.5-3.3s1.4-5.4-1.8-4.5-3.5.9-3.2 3.5-.4 1.2-.4 1.2l-4.4-2.3a41.2 41.2 0 0 0-4.8-2.6c-1.8-.5-2 1-3.6 3.4s.3 2.4 2.7 2.4 4.5 1.4 3.6 2.2-2.3.6-6.2 2.2a6.3 6.3 0 0 1-5.4.5c-1.2 0 1.6-1.8-3.2-1.6s-4.3.4-5.7.9m-12.3 6.7a25 25 0 0 0-5.1 5.3c-.6 1.3 1.1.5 2.9-.2s1.3-2.9 2.2-5.1m9.2-9.7c-1.3 1-1.2 1.3 1.2.7s3.6-1.8 2.9-2.3-3 .9-4.1 1.6m9.3-12.4a22 22 0 0 0-5.8 3.9 3.3 3.3 0 0 0 1.6 2.3c1 .7 1.3.8 5-1.2s6.1-4.3 4.7-4.1-2.3 0-3.6.3 1-.9 3.4-2.3 3-2.7-5.2 1m-13.1 5.9c-1 .7-1.4.9 1.1.7s5.1-1 4.6-1.5a5.1 5.1 0 0 0-5.7.8m7.8-7.4a6.2 6.2 0 0 0-2.6 3.1c-.4.6 2.4-1.1 3.7-1.8s1.9-.2 3-1.5 4-1.3 6.4-2.4 2.3-2.3 1.5-3-6.2 1.8-12 5.6m25.5-3.7c-.6.4-.1 1 .7 1.7s1 .4 2.2.4a10.6 10.6 0 0 1 3.1.3c.3.1.5.1.8-.8s-.5-.6-2.1-1.3-3.1-1.4-4.7-.3m10.4 4.5a6 6 0 0 0-3.3 1.7c-.7.5.5.7 1.3 1.5s.5 1.3 3.2.6 3.5-1.3 3.3-2.5-2.6-1.5-4.5-1.3m11.2-1c-2-.3-3-.7-4.5.2s0 1.2.1 1.5 2-.6 2.3.1 1 .9-1.4 1.7-3.2 1-4 1.8 1.8-.7 3-.2 2.5.2 4.8-.7l5.5-2.3a17.4 17.4 0 0 0-2 2.6c-.4 1-.4 2.2 1 2.4s1.3-1 4.7-2 4.1-2.5 4.1-2.5a2 2 0 0 1-1.1-1.5 3.3 3.3 0 0 0-.5-1.5 15 15 0 0 1 2 .5s-.5-.7-1.3-1.8-.5-1.3-1.5-2.9-1-2-3.7-1.1-4.2 2-6.3 2.5-3 1.2-1.3 1.3a6.3 6.3 0 0 1 3 1c1 .4 1.3 2 1.3 1.9l-4.2-1m-11 10.3a.6.6 0 0 0-.2.1 2.2 2.2 0 0 0-1 2.2c.2.6 1.6-.2 3.8-1.5s.5-2.5-2.7-.8m32.8-12.8a18.3 18.3 0 0 0-4 3.9c-.9 1.2.1 1 3.4 1.2a9.7 9.7 0 0 0 7.5-1.9c1.1-1.4-2.4-6.5-7-3.2m11.7-11.7a14.5 14.5 0 0 1-7.1 1.5 60.5 60.5 0 0 0-11.8 2.1c-1.5.5-.7.7 1.4 2s2.6 1.8 5.7.4 5.6-2.6 8.6-.9 4.4 2 2.7 3.4-.4 2.5 1.2 4 4.1.7 7.7-.3c3.6-1 26.3-7 29.8-8.2a28.4 28.4 0 0 0 7.8-5.5c1.6-1.4 2.3-3-.5-3.5a27.2 27.2 0 0 0-9.7.1c-3 .7-5.2 2.4-9.5 3.8s-3 2.6-7 3.7-1.7 1.8-7 1.7-9.3-.9-7-1.7 4-1.6 2.6-2a11.5 11.5 0 0 0-7.9-.6m-49.4.5c2.6-.2 3.3 0 .8 1.3s-4.2 3.1-1.6 2a41.8 41.8 0 0 1 8.4-1.9c3.6-.6 3.2-.8 5.1 0a6.4 6.4 0 0 0 5.7-.6c2.2-1 2.5-1.3.7-2a25.6 25.6 0 0 0-6.3-2.4 14.5 14.5 0 0 0-6.4-.1 4.5 4.5 0 0 1-4.8-.2c-2.2-1-3.4.1-5.9 1.3a10.4 10.4 0 0 0-3.7 3.6c-1.8 1.8 5.5-.9 8-1M216 75c-2.2 3.2-3.9 5.9-.6 5.2s4.6-1.5 5-.9-.2 1.3-5 2.7-3.2 1.6.1 3 3.3.5 7.4-.7a43.4 43.4 0 0 1 8.7-2.9c3.6-.3 4.8 0 1.9 1.4s-9.8 4.6-7.9 5.2a34.4 34.4 0 0 0 10 1.2c2.4-.3 2.5-1.7 7.6-2.7s4-.2 4.2-1.3 2.4-4.1 2.8-5.1 1.5-1.9 4.2-3 3.3-1.9.6-1.9-5.7.5-5.6 0 1.4-2.4.1-2.8a16.2 16.2 0 0 0-4.5 0c-1.5 0-3.6-1.3-5.6-1.6a54.6 54.6 0 0 1-6.1-.4 20.4 20.4 0 0 0-11.2-1c-2.9 1-3.9 2.4-6 5.6m0 21.4c-1 .7-3.7 1.5-1.4 2.1s1.8.7 4.1-.6a24.5 24.5 0 0 0 5.8-4.6c.2-.5-2.9-.7-5-.5a67 67 0 0 0-8-.1c-6.2.6 5.4 3 4.4 3.7m127-67.4c-4.8 0-22 1.2-27.2 3.2s-5.5-.8-12.8 1.4-19 4.5-22.5 5.7 2 1 4.2 1.3-9.5 1.2-17.6 4.8-13.4 5.8-3.8 5.9a71.5 71.5 0 0 1 11 .5s-12 1.3-17.2 1.3-2.5-.7-11.3 3.4-17.3 7.4-16.4 9 8.5 2.4 13.2 1.8a69 69 0 0 0 14.5-4.8c.7-.4-3 3.4-3 3.4l9.6-4 13.7-6.6a59.5 59.5 0 0 0 5.6-3 99.5 99.5 0 0 1-13.4 9.6 104.7 104.7 0 0 1-16.8 7c-3.7 1-2.7 2.3 1.3 2.7a52.4 52.4 0 0 1 9.6 2.8 4 4 0 0 1 2.8 1.9 14.5 14.5 0 0 0-12 3c-5.5 4.6-4.3 5.9-2.6 5.8s7.3-1 8.7 0 8-3.3 8-3.3a13.9 13.9 0 0 1-6.4 4.9c-3.5.9-3.8-1.2-8.8.5s-4.5 2.4-2 3 4.3.6.8 2.7-5 3-4.8 4.5 5.3.2 8.4-.7l12-3.3c5.7-1.6 4.7-2.6 6.8-3s4.5-.7 4 1 1 .3 7-2.7 2.5-4.8 2-5.5-3.1-.5-4.7-.6 3.4-5.5 2.2-6.6 7-2 10-6 1.1-6.1-1.7-6 4.8-1.4 7-2.8a42.8 42.8 0 0 0 8.8-5.8c1.7-2.2 2.3-3-2.7-1.6s7-3 12.4-6.8l13-9.3c1.4-1 2.8-.9-4.2.8s-15.4 2.7-10.9 1.4 18.1-5.2 21.4-7.6A47.9 47.9 0 0 1 343 29m-68.3 81.5c-7.3 1.3-18 2.8-19 7.5a98.1 98.1 0 0 0-1.7 16.7c.2 1.8 9.5 2 15.6.7s16-3.5 13.8-4-.6-1.5 5-2.7 6-2.2 5.9-3 1.2.7 5.5 1.2 8.6 4 12.6 5.6 12.6 3 11.5 5.3 3.4 7.8-8.2 12-12.5 3.3-12 5.2 1.4 2.5 6 1.5 10.7-5.3 13.3-3.8a16.5 16.5 0 0 0 8 1.7c2 0-2.2 1.8-3.2 2.3s2.5 0 9.7 1 15.4-.5 11.1-1.4a40.7 40.7 0 0 1-8.9-4.1c-2-.7-.2-.2 3.1-.3a22.6 22.6 0 0 1 8.1 1.8c1.6.5 2-.7 2.4-4.2s-1-3.1-7-4.6-8-3.2-9-4.9 2.4-2.8 3.5-4.3 5.8 1.2 8.9 2.8 6 4.8 7.6 1.8a27.4 27.4 0 0 0 2.1-10.9c-.3-1.4-2 .5-11.7-.9a89.2 89.2 0 0 0-15.4-1.4c-.8.2 2.2-1.7 5.8-3.9s5.5-2.3-4.2-6.2-12.4-4.5-18-3.7-8-2.8-12.4-3.3-12.9 4.7-15.5 5.8-1.5 1.6-5.8-1l-7.5-4.3m6.4-1.5c-3.5 1.1 3.3 4.2 8 3.3a31.4 31.4 0 0 0 9-3.8 42.2 42.2 0 0 0-17 .5m-4.6 49.1a18.5 18.5 0 0 0-.8 6.2 8.3 8.3 0 0 1-.3 3.5c-.2 1.3 1.6-.6 3.5.7s1.4 2 3.4-.6a10.4 10.4 0 0 1 8.7-4c3.8-.1 6.6-.5 5-1.7s-3.2-.8-6.2-2.3a16.2 16.2 0 0 0-8.3-1.7c-3.3 0-4.3-2.5-5-.1m63.4 154a10 10 0 0 0-9.5-3 17.2 17.2 0 0 0-9.9 4c-2 1.1 2.3.3 5-1.2a6.7 6.7 0 0 1 5.4-1.1c.5.3-.8.9-1.4.5s-.3 1.2 3.1 1.4 4.3.4 5 1.5a6.2 6.2 0 0 0 1.5 2.3c1 .8 1.3 1 .1 1.8s-.8.6.3.8a16 16 0 0 0 6.2.2c2.8-.5 3.8-.2 1.4-1.9l-7.2-5.2m11.2 8a3.1 3.1 0 0 1 1.8 3.2c0 .7-1.8.5-5 .6s-2.6.3.3.8 4.6-.1 4.8 1.5 2.5-.4 3.4-1.6 1-.3 5.9-.8 6 0 4.8-1.4 1.9-2-2.7-2.8-15.4-.6-13.3.5m-13.2 4c-2.2-1.1-4.4-.8-4.1.6s.9 1 2.6 1 2.9-.8 1.5-1.5m35.8-.7c-2-.2-2.2 1-.7 1.8s3.4 0 5.3-.5-1-1.1-4.6-1.3m-65.6-187c-2.7 1.5-4.3 2.5-1.2 4.3s5 2.9 5.6 1 .3-8-4.4-5.4m-17.4 31c-4.2 1.5-5.6 2-4.5 3.5s2.2 1 5-.8 4.1-4.5-.5-2.8m9.7.5c-.7.3-.6 1.6.6 2.5s2.7-1 3.2-2.6-1.2-1.1-3.8.1m-70.1-71.6c-4.4 1.2-10.6 4.1-7 3.1s6.8-1.2 12.6-3 6.3-2.2 5.9-4.2-3.6 1.7-11.5 4m-31.7-8.2c-4.2 2.2-3 2.5 2.8 2.5s5.6-.7 4.2-3.4-4.6-.4-7 1m322.3 20.6c-5.3 1.5-7.1 1-8 3s-3 1.2-4.2 1.5-2.5 5.9-3.4 5.2a14.6 14.6 0 0 1-2.6-2.9c-1.4-1.7.2-1.5-2.3-3.3s-7.2-1-7.5-.2 3.4 1.1 2.3 2.2-4 2.4-5 3.1 2.2.2 4.2-.3a4.6 4.6 0 0 1 4.3 1.6c1 1-.7 2-1.5 2.6s3 .1 4.5.2 2.3.9 1.4 2.2 4.5-.2 7.6-.6 4 1.2 8.4-.2a36.3 36.3 0 0 0 10.8-4c4-2.5 3.8-2 6.5-3.6s2-2 2-3.6 1.9.3 1-2-4.2-1.5-6.6-1.5-2.4-1.4-3.7-1.7-2.8.9-8.2 2.4M845.2 330a6.3 6.3 0 0 0-1 2.3l-.6 3.9c-.1 1.3-.2 2.1.6 2.6a3.3 3.3 0 0 0 2.8.5c1.5-.3 3-1 2.5-2.6a38.3 38.3 0 0 0-2-5c-.5-1.1-1.8-2.7-2.3-1.7m-.8-2c0 .6.3.6.5 1s.6.1.3-.4l-.3-.6s-.5-.3-.6.2m109.2 101.5h-.2c-2.8 1.5-4.8.3-9 .3-4.3 0-12.2 1.6-13.1 3s-.5 1.8-1 1.5a6.2 6.2 0 0 1-1-1.5 7 7 0 0 0-1.7 3.4 20.5 20.5 0 0 1-.3 5.2c-.6 2.2-1.9 3.2-2.2 4.7s1.7 5.2 2 7.1a9.6 9.6 0 0 1 .4 5c-.4 3.2 1 5.5-1.3 6.7s-3.6.5-1.8 2.9a7.5 7.5 0 0 0 7.2 3.9c4-.2 3.3-1.5 6.3-1.2a38.5 38.5 0 0 1 6.1.4c2.5.6 4.1 1.2 5.5 0s.7-1.5 3.4-1.9 2.6-.7 4.3-.5 2.4 1.6 5 .7 1.2-1.5 6 0a26 26 0 0 1 8.3 3.8 14.4 14.4 0 0 1 4.5 4.7 8 8 0 0 0 1.3 2.8c.3.1.7.3 2.1-.3a47.1 47.1 0 0 1 5.4-1.6 7 7 0 0 1-1.9 2.7 3.7 3.7 0 0 0-1.5 2.1c-.1.4 2.3-.7 2.5-.6s-.5 3-.3 3.4 1 .5 1.3 1.6a11.4 11.4 0 0 1 1.3 4 9.1 9.1 0 0 0 4.4 5.5 18.3 18.3 0 0 0 5 1.6c1.5.3 2.1-1.2 3.4 0s-.7 1.8 3 2.7a10.7 10.7 0 0 0 6.7 0c1.7-.4 1.1 1.7 3.7.1s2.8-1 4.1-3.5a9.9 9.9 0 0 1 4.1-5.1c2.7-2 2.6-.5 5.2-3.9a36.2 36.2 0 0 0 6.5-9.4 13.3 13.3 0 0 0 1-4.9c.5-3.8 1-3.2-1.2-5.6s-2.8-2.2-2.7-4.5 1.1-2.6-.1-3-2.5-.5-2.7-2.1a8.9 8.9 0 0 0-.9-4c-1-1.8-2.3-2-4.5-4s-.8-1.6-.2-3.4 1.4-3.5-.4-5-1 .1 0-2.7.9-2.4-.6-3.5-2.1-1.2-2.6-3.3a66.5 66.5 0 0 1-1-6.8c0-1.3-1.1-.2-2.1.4a8.5 8.5 0 0 0-3.1 3.9c-.6 1.7 0 3-.9 5.3a11 11 0 0 1-5 5c-1.7.9-2.2-.6-3-1.3s-.7-2-2.6-3.7a44.8 44.8 0 0 1-6.8-5.6c-1.3-2 0-1.6 1-2.9a7.7 7.7 0 0 1 3.8-2.6c1.6-.5 1.4-1 0-2.4a17.8 17.8 0 0 0-6.7-3c-2.9-1-4.5-1.7-4.8-.2s1.3 2.5-1 1.3-4.4-2-5.8-1.3-1.7 1.2-3 3-.5 2.4-1.5 2a45.8 45.8 0 0 1-5.7-4c-1.2-1-2-1-4-.3a98 98 0 0 1-10.8 3.7c-2.3.5-2.2.3-5.8 5.2m-61.7-80.7c-1.3-.5-2-.9-.7 1.1a22 22 0 0 0 2.8 3.9c1.2 1.4 2.2-.4 2.8 2s.2 2.4 1.2 3.5 1.8 1.5 2 2.4a5.7 5.7 0 0 0 1.2 3.5 4 4 0 0 1 1.4 3c.4 2 1.3 3.5 1.5 5.2s3.3 3.8 4.5 6 3.5 5.6 4.1 5 1.7.3 2.6.3 1.5-1 2.7-3.5a3.9 3.9 0 0 0-.3-4.7c-.7-.7-2.1-1.3-2.4-1.9s-.5-2.7-1.4-3.5-1.2-.3-.9-1.7 1.5-1 .2-2.2a7.5 7.5 0 0 1-1.7-2.4c-.3-.5-3.4-1.9-4-2.8s-3.9-3-5.2-4.8a20.9 20.9 0 0 1-3.3-4.4c-.3-1.1-1.8-2.3-7.1-4m27.4 37.3c-1.4-.3-2-1.2-3.2 0s-1.1 1.2.3 1.6 1 .9.9 1-.7-.2 2 1.5a8.6 8.6 0 0 0 5.8 1.7c.9-.2.9 1.1 4.8 2.7s6.2 1.3 8.6 2.5 2 .2.5-1.4-1.5-1-3-2.6a14.5 14.5 0 0 0-5.3-2.9c-1.2-.5.7 1.4-2.9 0s-2.4-.3-4-1.8-1.7-1.7-2.9-2.2-1.6-.1-1.6-.1m28 12.5c-1.1 0-3.4 0-2.5.6s0 .6 3.2 1.2a15.7 15.7 0 0 0 6.3.6c.6-.4-.5-.3-1.6-1s-1.2 0-3-.4a4.3 4.3 0 0 1-2.4-1m10.7 2.8c-2-.4-2 0-.5 1a10 10 0 0 0 4.2 1.5 22.5 22.5 0 0 1 3.9.1l4.9 1 1.8.3s0-.4-1.3-.7l-3.3-.8c-1.3-.3-3.5 0-4.4-.4s-2.3-1.2-2.8-1-.3-.6-2.5-1m10.8 5.5c-1.7.4-1.9.6-2 1.3a1.2 1.2 0 0 1-.4.9 7 7 0 0 0 4.1-.4 6.4 6.4 0 0 1 3.8-.8 13.2 13.2 0 0 0 4-1 12.4 12.4 0 0 1-2.7-.7 5.9 5.9 0 0 0-3.5 0c-.5.2.3.5-3.3.7m-12.1-2.7c-1.3-1.4-2.8-1.6-3-1.1s-1.5.2.5 1.4 3.6 2.7 3.7 1.7-.7-1.5-1.2-2m-3.6-41.6c-1.1.8.6 1-.9 1.5s-2.4-.1-4 1a19.1 19.1 0 0 1-4.9 1.7 16.6 16.6 0 0 0-5.3 1.2 1.3 1.3 0 0 0-.5 1.7 1.4 1.4 0 0 0 .4.5 4.6 4.6 0 0 1-2.5-1c-1.7-1.1-1.7-1.9-1.6-1.9a2.5 2.5 0 0 0-2.6 1.2c-1.2 1.5-1.6 1.5-.5 2.9s-1.2.8-1.1 1.5-.2 2 .6 2.4 1.1-.4 1.9 1-.9 4 .4 4.5 2.3.2 3.3.9a4.8 4.8 0 0 0 3.2 1.2 6 6 0 0 1 3.7 1.4 15 15 0 0 0 4.5 2.3c1.4.3 1.6.6 2.2-1s1-3 2.9-3.8 2-.7 2.4-1.8a5.7 5.7 0 0 1 2-3.2c1.4-1 1.5 1 2.3.3s1.3-.6 1-1.1-1.6-1-2-2 .6-1.3.4-3.2-.8-1.4.4-2.1 2.2-.7 2.5-1.5.8-.6 2.2-1 0-.4-1-1.5-2.5-4.4-3.9-4.7a16.9 16.9 0 0 0-5.5 2.6M1085 514c-.3-.5-.8-.5-.2 1.2s.9 1.4 1.6 1.8.3 3 .5 3.8a12.1 12.1 0 0 0 .6 1.8 12.6 12.6 0 0 1-1.6 3.8c-.9 1-1.9 1.2-2.6 2.1s.8 1.3 1.6 2.1.6.7-.2 1.5-2 .7-2 .9 1.5 2.2 3 1.5a19.3 19.3 0 0 0 5.2-2.7c1-1-.6-1 1.3-1.3s1.5 0 2.8-.7 2.6-1.5 2-2.5-2.2-.1-3-.2a3.3 3.3 0 0 1-2.5-1.3c-.9-1-1-1-1-2a5.5 5.5 0 0 0-.4-1.8s-1 1.3-1.6.5-.1-1.3-.3-2.3l-.2-2.1c-.1-.8.7-1.8-1-2.8s-1.6-.8-2-1.3m-6.4 15.8a20.5 20.5 0 0 0-3.9 1.6 12.9 12.9 0 0 0-3.2 2.2 10.6 10.6 0 0 1-5.6 1.2 10.4 10.4 0 0 0-5.4 1l-6 3.2c-.5.2 1 1.3 2.7 2s4 3.5 6.2 2.6a61.4 61.4 0 0 0 6.7-4.7 18.3 18.3 0 0 1 4.7-1.5c2-.6 5.7-1.8 6-2.7a8.3 8.3 0 0 0 .4-2.7 2.2 2.2 0 0 1-2.3 0c-1.3-.7-.3-2.2-.3-2.2m-19.1 11.5c-1.5-1.6-2.5-.1-3.5 1.4s.7.6 2.6.5 1.4-1.3.9-1.9m-57-35c-1.9-1.4-2.1.5-2.3 2a10 10 0 0 0 .3 4 5.6 5.6 0 0 0 4.5 2.7c1.3 0 2.7-1.4 4.4-2.6a6.7 6.7 0 0 0 3-3.7c.1-1-2 .3-3 .3a6 6 0 0 1-4.4-.4 16.5 16.5 0 0 1-2.5-2.4m4.9-104.8c-2-.2-2.5-1.8-3.1-5s-1.7-3.7-6-3.8-3.4 0-1.1 1.5 2.5 2 2.8 2.1 4 1.7 3 2-4.6-.5-2.8 1.4 1.2.8 6.1 5 6.5 2.9 7.3 6.6 1 3.2-.8 3.5-4 .5-3.2.8 2.2 1.1 6 2.6-.5 2 3.8 3.5a8.5 8.5 0 0 0 8-.4c2.4-1 2.4 0 5.8 2s3.6 5 7.7 7.7 5.5 4.8 3.5 1.6a86.7 86.7 0 0 0-5.3-9.2c-3-3.9-3.1-4.2-3.5-6.6a20.6 20.6 0 0 0-7.6-9 107 107 0 0 0-11.3-7.2c-5-3-7.4 1.2-9.3 1m-27.7-18.4c-2 .5-2-.2-3.1-1.3s-1.4 1.2-4-.8-3.5-2.8-7.1-1.8-2 2.4-2.4 3.7a27 27 0 0 1-5.4 5.6c-1.3 1.2-1.5 1.7-1 2.8s1.6 1 1.9 1.6a11 11 0 0 1-2 5c-.8 1.1.9 1.8 2.7 2s.4-.4.7-1.7 1.4-1.5 2-3.8l1-3.4s.6 0 1 .9.7 3.4 1.2 4.8 1 2.4 2.4 2l2.9-1s-2.2-1.3-2-2 1.4-1 .3-3.7-1.8-3 .3-2.6 2.6-1.3 4-1.4a7.7 7.7 0 0 1 3 .5 3.8 3.8 0 0 0-3-1.5 27.7 27.7 0 0 0-5.4 0c-1.8.2-3.3.2-3.2-1.2a8.2 8.2 0 0 1 .7-3.6c.7-1.8 2.8.3 4.9.4a16.2 16.2 0 0 1 6 1.6c4 1.5 4.6.8 6.2-.3a14 14 0 0 0 2.9-2.4s-3.4 1.1-5.5 1.6m11.3-2c.6-.4-3.6 1-4.4 1.3s-.4 1.3-.1 2.1a19 19 0 0 1-.6 4c0 .5 1.6 1.5 1.6 1.5a4.6 4.6 0 0 1 1.3-2.2c.9-.6.5-1.7 1-3.1s-.4-2.2 1.2-3.6M979.9 394c-2.4-1.6-3.6-1.4-4-.2s-.7 1.7 2 2.5 6.4.7 2-2.3m5.5.8c-.7 0-2 1.5-1.9 2.7s.7.6 2.3.8 1.6-.8 3.5-.4a23.5 23.5 0 0 1 5.3 2.9s1.1-.6-1.4-3a9.1 9.1 0 0 0-7.8-3M947 322.1l-3.2-.7a12.5 12.5 0 0 0-2.4.7c-.8.1-1 .6-.7 1.6s1.1 1.3 2.4 2 1-.3 2-.4a2.3 2.3 0 0 0 2-1.3c.4-.6 1.1-.7 1.4-.9s-.5-1.2-.5-1.3a6.8 6.8 0 0 0-1 .3m32.1 12c-.9-1-2.1 1.1-2.8 2.2s-1.2 1.8-.9 2.8 0 1.2 0 1.2l-1.3-1.4a7.1 7.1 0 0 0-1 2c-.2 1-.8 1.2.8 2.4s2.3 1 2.2 2-.1 1.6 1 2.1a5.6 5.6 0 0 1 2.7 2.1c.3.8.8-1.6 1.5-1.2a4.8 4.8 0 0 1 2 2.4 2.3 2.3 0 0 0 1.2 1.3s-.8-2.3-.2-2.3.9-.2-.4-1.4a10 10 0 0 0-3.8-1.9c-1.2-.5-1.4.3-1.8-1.8a4.7 4.7 0 0 1 .8-3.5c.1-.5.5.8 1.6-.3a6 6 0 0 0 1.8-3.4c.3-1.3 1.6-1.5.7-1.8a18 18 0 0 1-4-1.5m7.2 28.4c-.1 1-1-.6-1.6-.2s-.9.2-1.7.2a17.2 17.2 0 0 0-3 1 9.8 9.8 0 0 1 .3-1.2c0-.2-.2-1.4-1-.8a5 5 0 0 1-2.8 1 3.3 3.3 0 0 0-2.8 1.5.7.7 0 0 0 .3 1 1 1 0 0 0 .2.1 6.7 6.7 0 0 0 1.7-1c1.1-.8 1.3-.7 2.8-.4s1.4.2 1.7 1-.4 1.7-.5 2.5a1.8 1.8 0 0 0 .8 2.4c1.5 1 .8.3 2.3.6s1.4.3 1.3-.3a9.8 9.8 0 0 1-.2-2c.1-.6 1.1-.7 1.4-.7s.3.8.5 1.8.3 1 .7.3a8.5 8.5 0 0 0 1.4-2.8 10.1 10.1 0 0 1 .3-2.2 2.7 2.7 0 0 0-.6-2l-1.4-1.8-.1 2m-5.2-7.6s.2-.5-.8-1.9-1-1.7-2.9-2.6-4-1-3.6 1 .5 2.3 2 3a4.1 4.1 0 0 0 3 .2s0 .3-1.8.7-2.5 1.8-1.4 2.8.8 1.8 1.6 1.6 1.8-1.7 3.6-2.4 1.9-.8 2.4-2a8.1 8.1 0 0 0 .7-2l-2.8 1.6m4.3-2.3c-.2 0-1.2-.4-.4.7s1.8 1.7 1.5 2.3-.3.7-.9.4l-1-.5c-.2 0-.4.4-.3.8s.1 0 .5.8 0 1 0 1.8.5.5.5.5a21.3 21.3 0 0 1 .5-2.2c.2-.3.2-1.3 1-.8s0 1.5.8.7a4 4 0 0 0 .8-2.8c0-.8-.7-1.1-1.6-1.4a10 10 0 0 0-1.4-.3m-16.3-1.3c-.5 0-.9.3-1.5 1.4a4.8 4.8 0 0 1-2.7 2 27.5 27.5 0 0 0-4.4 2.2c-.2.4-.2.1 1.9-.1s3.7-.8 4.2-1.7-.1-.4 1.7-.6 1-.6 1.4-1.5.2-1.6-.6-1.7m84.6 67.8c-.7 1.1-.2 1.7-1.9 2.1a10.3 10.3 0 0 1-4.7-.5c-1.5-.3-.3-.3-2.1-1s-2.3-.7-1.7.3 0 1.7 2.7 2.6a28 28 0 0 0 7.2.6 2.2 2.2 0 0 0 2.5-1.5c.3-.4-1.3-3.9-2-2.6m6.4 5.3c.4 1.2.1 1 .6 2.4a6.6 6.6 0 0 0 3 3c.9.7 0-.3-.4-1.6a11.7 11.7 0 0 0-1.2-3.1c-.9-1.4-2.7-2.7-2-.6m-75-107.8c-4.5.8-6.2.2-5.3 3.2l1.6 4.8c0 .6 1 0 2.7-1.7a38.4 38.4 0 0 0 3.2-5c.6-.6-.6-1.6-2.2-1.3m100-75c0 1.5-.3 3.6-1.4 3.5s-2.3 1-3 2.4-2 3.1-1.3 4.6-.1 1.4-.4 2.4a14 14 0 0 1-2 4.8c-1.1 1.3-1.6 1.5-2 3.1a22.4 22.4 0 0 1-1.3 4.1c-.8 2.2-1.6 4-1.7 5s.9-.3 1.4-.4a3.6 3.6 0 0 1 3 1.3l.8 1.1s1.3 1 .4-3-1.6-3.6 0-6.5 2-2.8 4.3-2.4 2.7 3.1 2.9 3.4 0-.8-.2-2.8a12.8 12.8 0 0 1-.1-5 6.4 6.4 0 0 0-.8-5.5c-1-1 0-1.8.8-2.5a5.6 5.6 0 0 0 1.7-3.5 31 31 0 0 0 .3-4.7c0-.9-1.8 0-1.8 0l.3.7m-13.6 33.3a3.5 3.5 0 0 1-1.6 2.8c-1.3.8-.8 1.3-1.8 2.7s-3-1-3.1-.7a3 3 0 0 1-1.6 1.5c-.8.2-3-.5-2.9 1.3a20.6 20.6 0 0 0 .7 3.8 10.2 10.2 0 0 1 2-.4l1.5.1s0-.5-1.3-1.4-.7-2-.4-2.2 1.9.7 3 1 2.3.2 3.4 1.5a12 12 0 0 0 3 2.4 7 7 0 0 1 1.7-1.9c1-.6 2.6.4 4.6.6s3.4.6 3-.2 0-2.1 0-3.2-1.5-.6-2.6-.6a4.8 4.8 0 0 1-3.2-1.7 23.5 23.5 0 0 1-3-5.4s-1.2-1-1.4 0m-10.6 12.7a3 3 0 0 0-2.1 2.3c-.3 1.4 1.6.4-1.6 3.8s-4.5 4-6.7 4.4a5.9 5.9 0 0 1-4.4-.6c-.6-.5.5-1.1 1.2-1.2s-1.5-.9-2.4-1-.4.8-.7 1.4-2.6 1.7-2.7 2.6-.1 1-1.3 1-1.7-1.3-2-1.5a33.8 33.8 0 0 0-4.3-.9 4.4 4.4 0 0 0-4.4.9c-1.3 1-3.6.4-5.3.4s-1.7 2-3.6 2a2.7 2.7 0 0 0-2.7 2c-.4 1 1 .7 1.2.7s.6-1.3 1.7-.8 1.1.5.3 1.3l-2.1 1.8c-.8.7-.2 1.2.4 2.3s1.7.2 3.9-.7 2.4-1.1 2.8-2.8-.3-2-1.5-2.9-1.6-.5.3-1.3 2.1.6 3.3.4a31.5 31.5 0 0 1 6 .8c2.3.3 4.7.4 4.6 1v3.2c0 .4 1.8 0 3.4 0s.3-.6.4-1.4 1.1-1 1.1-1 .4 1.5 3.2 1.4 3-.3 3.7 0 .8 1 2 .8 1.3.4 1 .7 3.2.3 4 .1.3.1.5-1.4-.6-1.9.5-3.5a13 13 0 0 0 1.6-3c.5-1 1-1 1.5-1s.9-1.4 2-1.9 1-1 1.6-2.8-.8-2-.5-3.3a7.8 7.8 0 0 1 1.2-2.4 11 11 0 0 0-3.3.2l-.5.4s-.3-.5-1.3-.5m-24.2 14.4a62.3 62.3 0 0 0-6.6-1c-1.8-.2-2.3.3-2.5 1.6a24.6 24.6 0 0 0 .1 3.6c0 .7 1.2.3 2.9.2s2.2-2 3.7-1.6.5 1.7 3 .4 1.2-1.8 1.6-2.7-2.2-.5-2.2-.5m216.6-25.6c-2.8-1.8-3.5-2.7-4.2-2.1s-1 .8.6 2.2 3.1 1 4.4 2.8a5.6 5.6 0 0 0 3.4 2.6 3.9 3.9 0 0 0 2.2.3 60.2 60.2 0 0 0-6.4-5.8m-19.6-50.7c-1.3-.3-1.9-1.5-2.4.7s0 2.6 3.7 3.9 1 .3 6 2.3a24.2 24.2 0 0 0 6.4 2 7.8 7.8 0 0 0-1.5-3c-1.3-1.6-4.2-1.1-7.9-3.3l-4.3-2.5m-103.8-75.8c-.2.8 4.2 4.8 5.8 6.1a19.7 19.7 0 0 0 7.3 2.7c4 1.2 4.8.1 5.5-.4s-1.7-1.1-4.2-2.4-5-1.5-5.8-2.1 1.6-.2-.5-1.6-3-.9-3.5-1.3-.3-1-1.4-1.6-3-.2-3.2.6m-22.2-2.5c-2-.1-2 .3-.3 2.2s1 1.4-.1 1.9 0 0 2.6 1.9 3.3 3.9 5 4.9a6.4 6.4 0 0 0 3 1 11.1 11.1 0 0 0-1.3-3.8c-1.1-2.2-4.7-4-4.9-5.5s-1.2-2.4-4-2.6m21-.1-5.7-5.2a25.7 25.7 0 0 0-6.2-4.7c-1.4-.6-1.5.6-2.3 1.3s-1.2.3-3-1a42.8 42.8 0 0 0-5.7-4.3c-2.1-1-3.8-.3-6.9.6s-1.7 1.8.5 5.2 3.4 4 6.2 3.9 2.2-1 3.8 0a40.8 40.8 0 0 0 8.1 2.3c.2 0-1.1 2.1 1.7 2.4a21.7 21.7 0 0 0 6.9.4l2.6-1m-174.3-101c-.9.3-5.6-1-8.6 1s-4.3 0-5.9 1.3a28.2 28.2 0 0 0-3 3 8 8 0 0 0 4.3 2.5 13.5 13.5 0 0 1 8.2 4.5c1.9 2.6 3.5 3 9 4.8s2.7 1.7 5.6 2.2 6.8 1.8 6.2.6a3.3 3.3 0 0 1-.4-3.7c.7-1.8 3.3-1.1.6-3a9.5 9.5 0 0 0-5-1.6c.2-.2 3-.3 2-.6S961.1 56 961 54s1.8-1.8 3-1.7.8-.2-2-2.3-6.3-4.4-6.3-4.4c-2 .3-.4.7-1.4 1m24.8 20.1a9.6 9.6 0 0 0-5.8 1.8 29.3 29.3 0 0 1-6.2 2.7c-1.8.5-1.4.8 1 2a29.5 29.5 0 0 0 8.4.7c1.2.3 1.9 1.7 5.9 2.4s10.1 1.5 7.5-.6-1.7-1.2-4.5-3.7a19.6 19.6 0 0 0-6.9-3.6s7 0 5.5-.4l-5-1.3M810.5 13.9c-4 .5-2.7 1.1-5.4 2.2s-1 1.6 4.6 1.4a49 49 0 0 0 9.6-1.3c3.7-.6-2.7-3-8.8-2.3m8 7.6c-3.8.7-3 2-2.1 3s3.7-.1 4.4 1 .9.7 4.5-.4 2.3-.8 1.2-2.6-1.4-2-8-1m-20.5-3c-2.5.5-2.5.4-.3 1.3a20 20 0 0 0 10.6 1.3c3-1 2.7-.7-.8-1.5a25 25 0 0 0-9.5-1.1m-35.3-.5a76.7 76.7 0 0 1 10 .7c3 .5 1.7 2.1-3.7 2s.4 1 4.2 1.2 1.6-2 4.9-2.5 5.3.2 9.2-.3-2-2-6.5-2.4-6-.3-9.8-.8a63 63 0 0 0-10.9.5c-8 .2-1.1 1.5 2.6 1.6m28.8 3.3c-3.2-.3-11.1.1-4.6 1.2s6 1.3 8.7 1-.7-1.8-4.1-2.2m22.7 3.5a21.6 21.6 0 0 0-8.2-1.5c-3.6-.3-5.1 1-2.9 2a13.7 13.7 0 0 0 5.8.8c2 0 1.9-.4.7-.9s7.2.5 4.6-.4m19.8-1.4c-3.6-.1-3.8.2-4.3 1s.5.6 4.2.8a27.6 27.6 0 0 0 8.1-.5c2.6-.5 0-3 0-3.4s-3.6.6-4.7 1 1 1.3-3.3 1.1M562.4 147.1c-1.5 3.3-4.1 5-1 3.9s6.2-4 6.2-1.6-3.2 2.2-2.1 4.5.3 2.2 5.6 2.8 1 .6 2.4 2.8 2.3 2.9 1 3.6-5.5-1.8-5.7-.7.6 2 1.7 3.6-.6 2.6-3.6 3.8-.3 1.7 2 1.5 8.2-1.3 7.3.3-3.8-.1-5.7 2.5-9.1 5.1-5.3 4.8 3.2-1 14.6-2.7 3.5-.3 11-2.2 5-2.4.9-1.7 2.6-3.1 1.6-6.4-3.7 0-5.6-2-1.6-2.7 1.8-2 3-.7-3.5-3.5-2.7-2.4-5.7-5a13 13 0 0 0-8.2-1.9 9.4 9.4 0 0 0 3.3-3c1.3-1.8 1.5-1.7 2.8-4s-1.4-2-5-1.4-4.6 1-3.9 0a11.6 11.6 0 0 1 2.8-2.8c1.6-1.3 1.9-2-1.1-1.4a29 29 0 0 0-6 1.6c-4 1.5-1.1 3.2-2.6 6.6m-7.8 8.1c-5.2 1.8-3.7 2.7-2.8 3.3s2.5-.7-2.3 1.7-4.7 4.6-2.1 4.9 2.1-1.2-.4 2.7-4.2 6.7 1.3 5.4 6.9-3.5 9.5-4 3-2 3-4.3-2-2.3 0-4.4 2.1-4.1-2-5-1-1.4-4.2-.3m67 51c-.2.6.4 2-1.7 3s1 1.9 1.7 2.8 1.5-3.2 1.3-5.2-.4-2.3-1.3-.6m-.9 7.8c-3.3 1.3-3.5 2.2-4 4.1s2.8.4 2 2 0 2.7 3.4 1 1.5-3 2-5 1-3.7-3.4-2m51 21.3c-2.9-.3-4.2 1 .8 1.7a36 36 0 0 0 9 .4c1.8-.3.3 0-2.1-1.4s-4-.3-7.7-.7m27.6 2.3c-4-.8-3 3 1 2.6s2.5.4 4.5-1.8-1.4.2-5.5-.8M599.6 219c-3.3.4-3.5 1.2-1 1.7s2.3-.2 3.7-1-1.2-1-2.7-.7m-206-26a24 24 0 0 0-6.1 8 18.3 18.3 0 0 1-4.4 6.7c-2.4 2.7-1 1.9 7.8 1.6s8.3.8 10.3 0 2.5.5 2.7 1.8 2 .3 2.5-2-1.8-5.7-4-7.5-2.6-1.8-5.3-.8-2-.1-3.2-1.6-2.7 0-.7-2.8 2.2-5 .4-3.5m-265 68.6a11 11 0 0 0 7.5 4.6c2.5.2 1.8-.2 0-2.2s-1.1-2.2-2.1-3.6-5.6.5-5.3 1.2m18.1 5.4a25 25 0 0 0 6.6 1.7 23.3 23.3 0 0 0 7.6-.2c3.4-.4 4.4-1.8 2-2.4s-.8-1-4.7-.4a24.4 24.4 0 0 1-6.6 1c-2-.1-6.4-.2-4.9.3m-87.1 10.4a6.6 6.6 0 0 0-4.6 2.6c-1.2 1.6-1.3 2.5 0 3.2s.5.3 2.1-1.6.6-1.6 3-3.2 1.5-2 1.5-2a4.2 4.2 0 0 1-2 1m-1.8-1.9c-1.3 1.4-1.5 2.2 0 1.2s1.1-1.7 2.3-2 1.4-.8 1.4-.8a6.7 6.7 0 0 0-3.7 1.7m-46.7 15.5c-1.8 1.7-4.2 1.8-2.6 1.8a11.5 11.5 0 0 0 4.9-1.2c1.3-.8 2.2-1.3 1.5-1.5s-1-.3-1.2-.8c-.4-.6-.9 0-2.6 1.7m727.7 91.6c-2.6 4-7 1.5-11 4.3s-3.2 2-.9 6.5-2.6 3.6-4.2 8.6 1.1 4.2 2.3 8.7 1.9 3.1 4.6 2.8a16.6 16.6 0 0 0 4.8-1.3 54.4 54.4 0 0 1 3-9 64.8 64.8 0 0 0 4.7-13c.7-3.5 1.3-6.1 2.1-4.9s1 1.2 1.1-.6a13 13 0 0 0-2.1-8.2c-3-2.3-1.8 2.1-4.4 6.1M769 95c-3.8.2-5.8 1.7-3 2.6s2.4.5 7-.2-.2-2.7-4-2.4m77-39.3c-1.2-1.6-2.7 0-16.7 2.3-14.1 2.2-13.5-1.2-27 4.2C789 67.6 792 67 790.8 71s-4 2-5.5 5.6-8 3.1-5 6.5a26.5 26.5 0 0 0 13.3 7.7c6.5 2 8.5.8 7.1.2a13.4 13.4 0 0 1-4-12.8c1.6-6.2 4.9-4.9 8-6.9a80.8 80.8 0 0 1 16.9-8.6 210.2 210.2 0 0 1 25.1-3 1.5 1.5 0 0 0 .6 0c5.7-3.2-.1-2.5-1.3-4.1m-41.5 37.2c-1.6 0-2.3 0 .3 2.2s5 4.1 4.4 1.4a4.8 4.8 0 0 0-4.7-3.6m50-12.6c-2-1-3-1.9-3.7-.8s2 3 4.8 3.7.8-2-1.1-3M374.2 206a26 26 0 0 0-8.2-.5c-2 .4.7 1.5 4 2.1s6-1.3 4.2-1.6m-5.2 10.7c-.2-1.9-1.3 2.4 1.1 2.8s3.5.5 4.7-.8.2-.5-1.8-.4-3.9 0-4-1.6m889 53.6a23.7 23.7 0 0 1-6-3.4 5.9 5.9 0 0 1-2.6 2.4 1.6 1.6 0 0 0-1.2 1.8s-3-2.7-4.8-4.2-3.8-2-4-4.6-3.9-4-6.6-5.3a2 2 0 0 1-1.4-2.5 2 2 0 0 1 .6-.9l-1.7-.7c-1.7-.7-2.7 2.3-5.3 2.2a57 57 0 0 1-9.6-2.5 16.7 16.7 0 0 1 3.4 6.3 18.7 18.7 0 0 0 1 4.7s-.8.6-5.6-2.4-5.2-1.5-11.5-2.3a92.6 92.6 0 0 0-15.6-.8c-2 .2-1.8-.3-6.4-3.2a9 9 0 0 0-7.7-1.6c-1.5 0 0-2.4 0-2.4a13.6 13.6 0 0 0-4.2-.8c-25.6-.9-10 5-11.4 6.2l-4.8 5.4c-6.1 5.8-6.9 1.2-11.8 5.7-15.6 14.3-12.6-8-11-12.8 1.2-2.9 1.7-7 4.6-6.8 24.8 1.1 2.4-.4 27-2.3 8-.6 5.2-4 7-4.3a12 12 0 0 1 4.4.4l-3.5-1.8c-3.6-1.7-4-1.2-7.7 0s-6.1.5-4.9-1 2-3.2-.4-3.1a27.7 27.7 0 0 1-7.7-1.4 23.5 23.5 0 0 0-14 .6c-5 2-2.8 2.3-1.9 3.5s-6-1.6-9.3-3-1.4-1.2.8-1-2.6-2-6.8-4.2-2.8-.4-5.7-.6-2.3-1.6-3.5-2.2l-10.8-4.8c-4-1.8-3.9-1-5.3-.4s-10.7 2.8-14.8 4.5-8.5 1-13 2.3-5 1-2.2 2.4 3.3 1.3 3.2 3.4 1 3.3 4 4.3 2.2 1.4 3.3-.1.5-4 2.6-1.6 4 4.3 4 6.7-1.5 3.8-4.1 7-4.9 8.3-7.6 10.4l-7.8 5.8a61.4 61.4 0 0 1-17.6 6.6c-2.4 0-3.9-.5-4.5-2.3s-1.4-1.7-4.4-.8a10 10 0 0 0-6.3 4c-1.8 2.3-3.8 1.7-6.6 3s-3.3.8-2.3 3.6 2.8 6 2.4 8.3a12.7 12.7 0 0 1-4.5 6.1c-1.4 1.1-6.5.4-6.2-.3a43.6 43.6 0 0 0 1.8-6c.4-2-1.5-2.6-.7-3s4-.6 2.4-2.6-3.4-1.2-3.7-3.1 1.2-3 1-3.7-1.6-1.9-4.5-3-4.2 1-4.3-1.1 1-2-.2-3.3-2.4-1-6.5.3a20 20 0 0 1-7.7.8c-3.1.1-3.3.7-2.8 1.6s2 4.8 3.8 5.7 3.6.3 6.7 1.2 3.5 1.3 2.5 2-3.4 1-7.9 2.8-3.2 1.6-2.2 3a21.9 21.9 0 0 1 3 6.1c.6 2.6-1 3-1.5 4.3a5.3 5.3 0 0 0 .5 5.8c1.8 2.8.3 1.6-.1 2.3s-6.3 5.3-9 7.7-2.7 2.7-9.6 4.4a30.3 30.3 0 0 1-13 1 48.6 48.6 0 0 0-8-.2c-1.8.1-1.5 1.4-1.8 2s-1.8-.4-1.2-1.3.5-1.8-.3-2.3a6.4 6.4 0 0 0-6.3-.5c-3.1 1.4-6.4.7-8.1 3s-1.3 1.6-.4 3a53.8 53.8 0 0 1 6.3 10 13.4 13.4 0 0 1 0 7.1c-.5 2.6-8.2 5.8-11.5 6.7s-4.2 2.2-3.2-.1-.3-4.2-2-6.6a28.3 28.3 0 0 0-8.7-5.8c-1.1-.4.8-1.6 0-1.7s-2.6-1-3 1.5-2.2 1.2-3.2 3.5-2 4.7-.1 5 1 2.4 1.9 5.3.6 1.4 3.6 4.6 2.2 2.6 2.5 5.2a14.2 14.2 0 0 0 .9 6.6c1.2 2.6 1.2 3-1.4 1.2a17.3 17.3 0 0 1-5.5-5.8 37.2 37.2 0 0 1-.9-7.9c-.3-2-4.6-5.4-6-7.1s0-2.7 1.5-5.6a19.2 19.2 0 0 0 1.2-8.3 49.3 49.3 0 0 0-1.1-9.8c-.5-2-.2-1.7-2-.5s-3 2-4.4 1.7-3.3-.8-3-1.5 2.3-3.2 2-4.3a12.5 12.5 0 0 0-2.4-6.3 13.2 13.2 0 0 1-4.3-6.6c-.7-3-1.2-2.3-3.9-1.3a31.9 31.9 0 0 1-10.9-.4c-2.7-.3-.7 1.1-1.5 2s-4.3 1.7-11.4 5.8-8.1 4.2-9.9 4.4-2.6 0-3 2.1a27.4 27.4 0 0 1-.9 5.2 10 10 0 0 1-2.3 3.7 20.4 20.4 0 0 0-2.4 4.3 7 7 0 0 1-4.2 3.1c-2.2.9-2.2.7-2.8-1.2s-4.2-9.4-7.1-16.3a15.7 15.7 0 0 1-1.9-9.7 121.3 121.3 0 0 1 1.8-13.5c.2-.5-2 1-2.8 1.8s-.8 1.8-3 1.7a5.1 5.1 0 0 1-4.6-2.3c-2-2-2.7-3-2.4-3a14.3 14.3 0 0 0 4.3-.1c1.5-.4 1.1-1 1.1-1l-3.3-.3c-1.8-.2-1-.5-3.3-1.6s-2.8-1.2-3.1-2.2l-1-2.9-.8-1.6c-.3-.8-1.6-.1-4.2-.4a11.7 11.7 0 0 0-5.3.4 16.3 16.3 0 0 1-7.2-.4 27.6 27.6 0 0 1-7.7-2.7 24.9 24.9 0 0 0-4.6-1.2c-2.6-.6-2-1.6-2.5-2.6s-1.6-1.3-5.1-1.4a14 14 0 0 1-5.6-1c-1.9-.6-2-1.2-3.5-2.6s-1-.4-2-1.2a7.7 7.7 0 0 1-2.7-3.8c-.7-1.9-.5-2.2-1.4-3.2s-.9-.7-4-1-1.7 0-2 .1a18.7 18.7 0 0 0-2.4 2c-1 .7.5 2 1.6 3.3s0 1 1.9 3 1.1 1.6 2.3 4.2 2 3.2 2.2 4 .6-.3 1-.9a8.7 8.7 0 0 0 .2-3 12.2 12.2 0 0 1 .9 2.8c.3 1.8 0 1.8.2 3s0 .9 2.3 1.1a30.3 30.3 0 0 0 6.4.3c2.7-.2 4-2 5.3-2.4s1.5-2.4 2.3-2.1-.2 2.3.4 3.8.8 1 2.6 1.8 2.2 1.2 4 2 .5.7 1.3 2.3 1 .7 1.8 1.4.6.2-.3 1.8-1 1.7-2.8 3-1.8.7-2 .7-.6-1.2-.6-1.2a9.4 9.4 0 0 0-1.6 3.6c-.4 2 .6 1.3-2.4 2a26.3 26.3 0 0 0-6.1 1.4c-1.3.7-1.4 1.7-2.1 2.2s-1.6-.1-3.6.2a7.1 7.1 0 0 0-3.2 1.2c-1.8.8-.3.9-2.5 1.3a57.9 57.9 0 0 1-8.1 1.6c-2 0-1.6.4-2.2 1s-.6.8-3 .9a36 36 0 0 0-7.3.6 12.6 12.6 0 0 1-5.4 1.2c-1.6-.4-1.2-.4-1.6-1.6a12.3 12.3 0 0 1-.7-4 15.9 15.9 0 0 0-2-6.9c-1.2-2-1.1-2-2.5-4.1a16.8 16.8 0 0 0-3.5-4.6 18.9 18.9 0 0 1-2.5-1.6c-.5-.6 0-2.5-.6-4.2a11.9 11.9 0 0 0-1.8-4.3 22.6 22.6 0 0 1-3.6-4.1l-3-5.4c-1.7-3.1-2.5-3.5-3.7-5.6s-.4-1.7-.8-2.9-1.8 1.8-2.8 2.4-1.5.2-2.2-1.6-1.3-3.4-2-2.8-1.1 1.4-.4 3.3 1.2 1.6 2.1 3.5 3.7 6.5 4.8 8.5a11.8 11.8 0 0 1 1.6 3.9 7.7 7.7 0 0 0 3 4.5c1.4 1.3 1.2.7 1.7 2.6a19.4 19.4 0 0 1 .2 5.4c0 1.2.7 1.9 2.4 3.1s.8.8 1.6 2.1a23.6 23.6 0 0 1 1.7 4.4 4 4 0 0 0 2.2 2.8 28 28 0 0 0 3 1.2c1.4.5.9.7 1.7 1.8s2.6 1.9 3.6 3.5.3 1 .1 2.5-.7.8 0 1.6a25 25 0 0 0 4.3 3c2.3 1.5.5.5 2.5.6a24.4 24.4 0 0 0 4.9-.5l8-.9 7-.6c1.4-.2 1.3 1 0 2.9s-2 3.4-3 5-1.4 1.5-2.2 2.8-5.8 6-6.8 7.6a20.7 20.7 0 0 1-3.8 4 76.2 76.2 0 0 1-8 4.7c-2.1 1.1-1.6 1.2-3.2 2.6s-6.4 5.5-7.7 7a32.8 32.8 0 0 0-3 3.4c-1 1.5-3.6 3.4-3.9 4.5s-1.6 1.2-.6 2.2 1.5 1.2 1.8 2.5-1.3 2.5-.5 4.8.3.6 1.6 2.5a7.5 7.5 0 0 1 1.2 5.7 25 25 0 0 1-.7 6.8 29.6 29.6 0 0 1-2 4.2c-.8 1.5-4.5 2.2-6.7 3s-2 .3-3.1 1.2a35 35 0 0 0-5 4.5c-1 1.6-1.7 1.4-1.4 2.4s1 2.4 1.9 4.3.1 1.8-.2 3.4l-.6 3.3c-.3 2-3 1.8-6 2.7s-2 .4-2.3 1.8a51.1 51.1 0 0 0-.6 6c-.2 1.7-1 1-2.8 3s-2.3 2.9-4.2 5.3a9.7 9.7 0 0 1-3.8 3.6c-2.2 1.5-4 1.8-5 3.6s-2 .5-6.6 1.7a13.2 13.2 0 0 1-5.6 1c-4.3.3-5.8.6-8.1.9s-2-.2-3.4-1.6-1.6-1.3-2.2-2.5-.2-1.5-.3-3.6a5.3 5.3 0 0 0-1.2-3.5 19.5 19.5 0 0 1-1.7-3.6 16.2 16.2 0 0 0-2.4-4.1c-1-1.5-1.4-1-2.3-2a4.3 4.3 0 0 1-1.3-3l-1-7.5c-.4-3.2 0-1.5-.5-2.9a46.5 46.5 0 0 0-2.2-4.8 24.7 24.7 0 0 0-2.1-3.6 21 21 0 0 1-2.3-3.9c-1-2-1.1-1-1.2-1.8s.5-2.1.6-3.4a44.3 44.3 0 0 1 .9-4.9c.4-2-.5-2 .5-3.4a21.4 21.4 0 0 0 2.6-4.2 6.7 6.7 0 0 0 .6-3.7 5.8 5.8 0 0 0-1-3.5c-.6-1.6-.9-3.6-1.7-6.3a13.8 13.8 0 0 1-1-3.6 22 22 0 0 0-1.3-4.8c-.6-1.4-.9-.8-2.2-1.7s-.4-.5-1.5-1.5-1-1.4-2-2.5a14.4 14.4 0 0 1-2.2-2.3c-1-1.3-.5-.5-.4-2.6a79.4 79.4 0 0 1 1.3-8.4c.4-2.3.5-2.2-.6-3.2s-1.8-2.3-2.6-2.5-2.8.2-5.7.2-2.7-.5-4-1.7l-3.5-3.3c-.5-.5-1.6-.4-6.5 0a23.5 23.5 0 0 0-5.2 1 33.6 33.6 0 0 0-7 2.8 13.9 13.9 0 0 1-7.6 0 14.2 14.2 0 0 0-8.8 2.1 5 5 0 0 1-5-.2 33.2 33.2 0 0 0-5.3-2.5c-2.5-1-2-1.5-4.5-2.4s-1.8-1-4-2.4-2.3-3.1-3.9-4.7a54.5 54.5 0 0 0-5-5.5 62.4 62.4 0 0 1-5.2-6.2c-1-1-1.8-1-1.8-1.5s1.6-3.7 2.3-5.3.9-1.5 1.1-2.5a10.7 10.7 0 0 0-1.6-5.2c-.8-1.5-2-4.7-2.6-6.2s.2-1.6.9-2.5a55.8 55.8 0 0 0 3.8-5.7l3.4-5.4a37 37 0 0 1 4.2-6.4 45.6 45.6 0 0 1 6.4-4.2c1.5-.7 2.8-1.1 3-1.7s.7-5.2 1-7.2-.3-3 1.4-3.9l6.1-3.1c1.5-.7 1.7-1.7 2.4-3.2s1-3.3 2-4 1 .3 2.5 1a7.1 7.1 0 0 0 2.5.9c.8.1 1.4-.5 3.2-.6a5.3 5.3 0 0 1 3 .5c1.1.4.5.4 3.5-1.1a53 53 0 0 1 9.4-3.8 50.2 50.2 0 0 1 8.6-2.2c1.8-.2.9 0 3 .6s2.2.9 2.6.4 1.8-1.8 2.6-1.8 2 .3 4.2.6a7.3 7.3 0 0 0 4-.3c1-.3 2.2-1.1 2.4-1.1l3.7 1c1.6.4 1.6.4 1.3.8a6.3 6.3 0 0 0-1.5 1.9c-.8 1.3-.4.6.3 2s1.2 1.3.9 2.3-1.8 2-2.8 3-.8 1.1 1.8 2.2a37.5 37.5 0 0 0 11.4 3.5c3.4.8 3 1 4.2 2s1.2 2.1 3.2 2.7a47.5 47.5 0 0 1 5.5 1.2 11.7 11.7 0 0 0 3.7 1.8c1.6.2 1.6.4 2.3-.5s1.5-1.7 1.2-2.2-1.1-1.2-1-1.6a28.3 28.3 0 0 1 2.1-2.8c.4-.5 1.5-.6 4-.7s4.4-.2 4.8 1 .3.6 2.2 1.3l3.8 1.2c1.6.5.7 1.3 1.6 1.3a12.2 12.2 0 0 1 3.7.3 34.6 34.6 0 0 0 7.3 1.8 9.3 9.3 0 0 0 4.6-.6c.4-.1 2.7-2 3.8-.6s2.8 1.6 6 1.6 3.2-.4 4-1a16.5 16.5 0 0 0 3.4-4.4c.7-1.7 2.6-5.1 3.2-6.7a7.5 7.5 0 0 0 0-3.9 4.3 4.3 0 0 1 .8-2.6c.5-1.1-1.5-.6-2.3-.4s-1-.4-1.8-.6-1.5-.4-2.1.7-.4 1.6-3.4 1.3-2.4-.4-3.4-1.3a9.7 9.7 0 0 0-3.9-1.5c-1.3-.4-1.4-.3-1.5.3s-.2 1.1-1.2 1.3a10.8 10.8 0 0 1-5-1 12.8 12.8 0 0 1-4.1-2.5c-1.8-1.5-1.6-1.4-2.2-3.6a7.3 7.3 0 0 1-.3-4.6c.4-.7.9-.8-.5-.5s-2.4.4-1.4-1.2a3.4 3.4 0 0 1 2.9-1.8 33.8 33.8 0 0 1 4.4-.2 13 13 0 0 0 4-.8c.7-.2 2-.5 1.4-.7s-2.8-.4-2.4-.8.6-.4 1.7-.5h4.4c1.5 0 2.4.3 2.9-.4a6 6 0 0 1 2.4-2.1 16.7 16.7 0 0 1 5.4 0c3 0 2.6.6 3.5 1.2s1.7.3 3 .6.4.8 1.4 1.2l4.9 1.4c2.2.6.7.4 3.4.6a24.3 24.3 0 0 0 4.8 0 11 11 0 0 0 4.6-1.3c1.6-.7.7-2.6.2-4s-2.7-2.5-3.8-3.2-3.2-3-4.4-3.8a25 25 0 0 0-4-2c-1.4-.6-3.9-1.7-4-2.5s.6-.8 2.6-1 1.5-.6 2-1.4.6-.8 2.3-1.2-1.9-1.5-2.4-2.1 1.2-.3 3-.5 1.8-.8 2.1-1.3.2-.8-1.8-1a49.1 49.1 0 0 0-8 1c-3.4.4-1.9.5-4 1.6s-2.2.5-2 1.2.3 1.3 2.3 2.3 1.2.9 1.8 1 2 .4 1.3.5-1.3.8-2.2.8-1.4.6-3 1.2a10.5 10.5 0 0 1-3.5.7c-1.2.1-2-.2-1.8-1.7s-.6-.5-1.8-1a5 5 0 0 1-1.6-.8 17.1 17.1 0 0 0 2.5-.8 4.2 4.2 0 0 0 2.5-2c.7-1-1.3-.5-2.7-.7l-2.3-.5a2.6 2.6 0 0 1-2-1 5.4 5.4 0 0 0 1.9.1c1.2 0 1-.3 1.4-.5s.8-.4.4-.4h-2.7a12.6 12.6 0 0 0-3-.2c-1.4 0-.8.5-1.9 1a3 3 0 0 0-1.6 1.3c-.6.7-.7.5-1.1 1a5 5 0 0 0-.4 2.4c0 .8-.4 1-1 1.7s-.7.3-1.8.7-.4.6-.5 1.5a15.8 15.8 0 0 0-.7 2c-.1 1-.7 1.1-1.5 1.8s-1.4.7-1.4 1.4a6.7 6.7 0 0 0-.1 2.6c.1 1.4.7 1 2 2.6s2.3 1 1.8 1.8-.5.4-2.3.2a3.7 3.7 0 0 0-3.4.8c-1.4 1-1.7 1.5-2.4 1.8s-.4-.7-.6-1.2-3.3-.8-5.4-1.3a28.5 28.5 0 0 0-3.1-.9 7.2 7.2 0 0 0-3.5.8c-2.2.8-1.8 1.4-1.6 2.6s1.8 1.5 1.2 4.3 1.8 1.5 2.7 3.3 0 1.6-.5 1.8-1.2 1.6-1.7 3 0 1.6-.5 1.5a2.3 2.3 0 0 1-2.2-1c-1-1.1-1.9 0-2-.7s-1.4-1.9-.9-3.4 1.3-1.7-.4-2.5-1.3-1-2.1-2.6a9 9 0 0 0-2.6-3.6c-1.6-1.5-1.4-1.1-1-2.6s.9-3.5 0-4.6a31.8 31.8 0 0 0-8.5-5.4c-3.3-1.4-4-.4-5.5-2.6s-2.2-4.5-4.7-5.8-1.2-1.5-3.6-.8-2.5 1-2.3 1.5a3.5 3.5 0 0 1 .4 2.6c-.3 1.5-.8 1 1.7 2.2s1.4.8 2.6 3a10.3 10.3 0 0 0 2.5 3.2 5.8 5.8 0 0 0 3.8 2c2.4.5 2 0 2.7.5s-1.7.6-1.3.8a25.4 25.4 0 0 0 3 1.8 16.3 16.3 0 0 1 4.8 2.9c.5.8 2.3 3.7-.4 1.5s-2.7-1.2-3.4.3.6 2.6.5 3.7-1.3.6-2.2 1.5-1.3 2-2.2 2.5-.7-.7-1.3-.7-.7.6-1.4 1.6 0 1.4.3 2.8.8 1.5-1.2 1.4-1.4-1.5-3.2-2.4-2.8-.6-4.2-1.3.6-.9 4.3-1.2a9.8 9.8 0 0 0 5.3-1.3c1-.6.7-.8 2-2.1s0-2-.9-3.5a6.7 6.7 0 0 0-2.9-2.7 27.6 27.6 0 0 1-2.8-2.2 8 8 0 0 0-4.1-1.5c-2-.3-1.6-1.6-2.6-2a35.3 35.3 0 0 1-4.5-3.2c-2.4-1.7-1.5-3-2.6-4.4a5.2 5.2 0 0 0-4.6-2.6 11 11 0 0 0-6.5 3c-2.4 1.9-1.9 2.7-4.7 1.4s-3.8-1.1-5.8.2a5 5 0 0 0-2.3 5.1c.1 2.6-2.3 1.6-4.2 2.3s-3.5 2.6-6.2 6.8.3 2.2-.3 3.6.3 2.5-2.3 4.5-1.5-.2-3 1.3a8.8 8.8 0 0 1-7.3 2.6c-3.7-.2-2.6 1-5 1.4s-3.5 1.3-3-.8 0-1.8-4.5-1.4-6 1.4-5.6.8a10.3 10.3 0 0 0 .9-3.3c.4-2 1-2.7.3-2.7s-2.1.4-1.2-3.1 1.2-4.3.6-6.3 0-4.8-.7-6 1-2.4.3-3-1.8-1.4-1.2-1.4a52.8 52.8 0 0 1 6.3.2 80.8 80.8 0 0 0 8.3-.6c2 0 6 .5 10 .8s3.8-.5 3.3-5 0-6.4-1.2-7.3-2.5-.8-3.9-2-.4-2.8-3.2-3.4-6 .1-4.5-.4 2-.6.4-1.5-2-1.8-.9-2 4.7-.3 4.7-.3.3 1.2 2.1.6 4.1-1.3 3.6-2.2-1.5-2-1.2-2a7.3 7.3 0 0 0 4.9 1.1c3.8 0 3.5-.5 3.2-1.7s2.5-1.2 4.4-2.2-.8-2.1-.4-3 2.6-1.6 6.6-1.9 3.2-.8 2.8-1.1 0-1.9.3-3.8-.3-2.5 1.7-3.4 1.4-.6 5.7-1 1.6-1 2.3-1.1l6.7-1.5c1-.3.8-.2 0-1.5a15 15 0 0 1-3-8.3c-1-6.2-.8-6.2 4.4-7.4s4-.8 3.6 2.7-2.6 3.5-3.1 6a7 7 0 0 0 2 6.8c2.2 2.6 2 1.3 6.7 1.3s3.5.8 6.6 1.6 2-1.4 5-2.1 2.4.5 9.4-.2l3.8-.3c-.2 0-1 0-.2-.4 1.7-.6 2.1-2 4.5-2s4 .5 4-2.2-1.4-2.3-1-4.3.6-1.1.8-2.7-.2-2 2.8-2.4.9 2 4.5 2.6 3 1.1 3.8-1 2.7-4.5 1-4.5-2.2-.1-4-2-2.7-2.5-1.6-2.4a79.2 79.2 0 0 1 10.6-.3c5.5.3 7 .7 7.4.3s-1-.9 1-1.6 8 .7 7.1 0a21.2 21.2 0 0 0-10-2c-3.6.4-12.6.8-14 .7a12.2 12.2 0 0 1-4.4-1.4c-.6-.5-2.6-.9-2.5-3.2s1.2-3.2-.6-5.5 3.5-4.1 7.3-6.4 2.9-4.3 5.1-4.3 3.1-1 2.1-1.7a24.2 24.2 0 0 0-6.8-4c-2-.3-4.8-2-7.8 1.6s0 4 .6 6-4.2 3.2-7.7 4.9-4.8 1.2-6 5.8-2.1 4.6 1.8 6.2 4.5 2.4 2.7 3.7-5.5 1.2-7.9 4.3-1.4 4.7-2.3 6.1-3.9 2-4.7 3.4-.9 4.1-4.4 3.7-1.5-3.9-3-5.7l-4.7-5.4c-1.8-2.2-.4-4.3-2.2-5.4a5.6 5.6 0 0 1-2.2-3.4l-.6 1a11.2 11.2 0 0 1-3.9 5 13.3 13.3 0 0 1-11.4 2.7c-2.6-.7-2.2-2.6-2.3-4.9a51.1 51.1 0 0 1-.2-9c.4-3.8 1.9-3.5 7.5-6s5.6-2.3 7-3.8a42.6 42.6 0 0 1 7.7-5.2 37.7 37.7 0 0 0 8.5-10.6c2.2-3.8 6.2-6.1 10-10.1a44 44 0 0 1 20-10c8.9-2.4 7.4-2.7 9.5-4.6s3-.8 6.5-1.2 2.9.1-.7 2.4-5.1 4.8-2.1 3a15.2 15.2 0 0 1 9.9-3.7 14.3 14.3 0 0 1 7 1.7c4.5 1.6 5.2 1.8 2.7 2.8a17.7 17.7 0 0 1-6.8.6 7 7 0 0 0 5.4 2.9c4.1.5 6.5-2 9.2-.8s3.4 1.8-.3 1.4-4.8 1.2-.4 2.6A53.2 53.2 0 0 0 718 93c6 .9 8.3 4 12.7 5.7s9.8 1 8 3.7.8 5.8-7 6.6-7.6-1-14-2.8-11-3.4-11-3.4a37.5 37.5 0 0 0 4.6 3.9c2.8 2 3 4 2.5 7.5s-2 4.5 3 6.5 4.3 1.5 5.9 1.4 4.3-.4 3.7-1a6.7 6.7 0 0 0-2.7-2.4c-1.7-.6-1.7-2 0-2.5s3.3.8 7 .9 0-1 2-2.2 2.1-3.5 6.6-4.3 9 1.2 10.2 0 2.7-2.7.4-5-4.1-3-2.6-4 4.8-3.1 6.1-1.5 4.7 3.5.2 2.8-1.8 4.6 2.3 4.7 3.8-1 7.3-1.7a146 146 0 0 1 15-4.6 11 11 0 0 1 7.4.5 9 9 0 0 0 6.8 1.6c5-.1 6.7-.8 11.5-.8s-.5 1.1 1.6 1.9 2.2 1.2 4 .6 7-1.2 4.7-2.8l-3.8-2.6a6.9 6.9 0 0 1 6.5-1.6 49.6 49.6 0 0 1 15.1 7.3 56.6 56.6 0 0 1 8.8 8 6.1 6.1 0 0 0 1.2-6.2c-1-4-5.2-3.7-4.7-7.4s-3.4-3.1-1.8-5.5 5.5-2.9 7-6 2.6-5.8 6-5.3 10.6 2.3 10.6 2.3a16.3 16.3 0 0 1-3.9 7c-3.4 4 .7 5.2-.8 10.5s-1.7 6 0 7.6 4.7 3.6 3 5.7a8.5 8.5 0 0 1-7.4 4.2c-5 .6-10.9-1-8.8.3a27.2 27.2 0 0 0 7.9 3.5c3 .9 1.6.1 4.3-1s9-3 9-4.5-2.7-4-.4-4.8 3.4-2.1 6.5-.3a21.4 21.4 0 0 1 5.4 7.2 11.8 11.8 0 0 0-3.3-8.5c-3.4-3.4-10.4-1.8-10-4.2s2.7-5.5 2.7-8.2-1-5.6 1.8-7.5a7 7 0 0 0 3.2-3.7 7 7 0 0 1-.5 4.9c-1.3 2.6-.3 4.4 1.5 4.7s10 1.7 5.8 0-5.5-2.6-.8-3.6 4.3.2 10.6 2.3a90.6 90.6 0 0 0 9.9 3.5c2.1.4 1.8.2 1.3-1.3a7.1 7.1 0 0 0-3.2-3.8c-2-1.3-3.5-.4-4-1.9s-.9-5.2-1.2-6.6 1.7 0 5.1.6 13 2 20.3 3.3 1.1-5.4 1.3-9.1 14.2-1.2 21.2-.5 15 2.6 28.3 3.4 5-.7 7.4-2.7 5.7-1.8 9.5-.9 7.2 2.3 5.7 2.3-6.1.4.3 3 4.7 2 1 2-1 2.2 5.6 3.8 2.9.3 2.1-1.5 1.3-.7 6.6 1.3a21.7 21.7 0 0 1 10 5.9c2.5 2.7 3.2 2.4 3.6 5.3s-.7 2.2-6 3.5-8 .5-15.4 1.7-6.2 3.1-10.3 4.2-3 .7 5 1.2a69 69 0 0 1 16.4 2c3.8 1.3 5.5 2.8 8.5 3.6 3 1.1 6 2 9 2.8 9.4 2.6 8 2.2 4.1 3.1s0 2.6 4.1 3.7 9.2 2.7 13.1 3.4 1.3-2.2 5.9-1 6.1 1.4 11 2.8 3 2.4 4.3 4.1 3.3 3.3 1 5.2-3.1 1.8-3.2 5.4 2.2 4.8 4.9 6.3 3.8-2.1 7-2.4 2.7 3.5 6.1 4a28.2 28.2 0 0 1 9.6 3.4 24 24 0 0 0 9 3.4c4.2.7 3.3-.8 2.5-2.9s-1-2 2.1-3 4.5.6 12.1 4.9 5 3.4 9.3 5.8a56.1 56.1 0 0 1 9 6.5c6 4.7 3.8 6.8 6.5 9.3s3.4 1.3 9.9 3.3 6 2.9 12.5 6.8 4 4.8 3.4 6.2-2.9 1.7 1.1 4a26.8 26.8 0 0 0 9.4 4.4c3.9.8.1.8 8.2 4.2s5.6 1.5 7.5 3.7 1.6 4.8 5.6 6.2 3.7 1.3 3-1.8-1.4-3.9 1-2.8 6.6 3.7 15 8.5 8 6 13.7 12.3 7.5 7.4 11.3 12.6a12.4 12.4 0 0 1 1.7 2.5 16.5 16.5 0 0 1 2.3 2c4.6 4.4 4 3.3 7.9 7.2a62.5 62.5 0 0 1 6.8 8s.1.4-3.5-1M775.8 206s-.6.4 2.4-1-1.3-.2-2.9-.7-2-1.1-1.3-2.6 0-1.5-1.5-3.8c0 0-.9-.5-2.9.2s-2.9-1.2-5.3-.8-4.8 0-6.4 2.4-3.1.6-3.8 2.7-5 2.8-5 2.8 1.5 1.4 2.7 2.7.3.5 1.3 4.5 1.8 3.8 3.6 4.5a44.3 44.3 0 0 1 4.3 2.4s-1.6-1-1.8 1.1-3 3.4-3 6.5-4.1 5.6-1 6.2 2 1.5 5.3 2.5a42.4 42.4 0 0 0 10.2 2.2c5 .6 2.4-1.2 2-3.4a23.1 23.1 0 0 1-.7-6.1c0-2.4-1.2-2-1.8-3.5s.7-2.3 3-2 2.7.2 1.6-1.5-.3-2.3-1.8-3.2-2.5 2-2.5 2-1-.7-.2-3.6.8-1.5-.3-2.2-1.9 0-3.3-2.2 0-1.5-1.7-4.1-.8-1.2 1.3-1 1-.3.1-1.1-1.5-2.2 1.2-1.8 6.1 1.2 7.4 1.5.8.3.8.4m-390.1-95.7c-.8 1.4 2.1 2.4 4 1.6s2.5-.4 3.5-1.1 1-1.7-.5-2.4-1-1.3-1.2-1.3c-2.6-.7-5 1.8-5.8 3.2m546.4-69c-3-.5-6.4-1-3.7.1s1 4 6.6 3.4 4.6-1 8.6-1.3 1.6-.2-2.7-2c-2.7-1-5.8.4-8.8-.2" fill="#fff" opacity=".5"/><path d="M911.6 362a5.5 5.5 0 0 1 5.4-5.4 5.5 5.5 0 0 1 5.5 5.4 5.5 5.5 0 0 1-5.5 5.5 5.5 5.5 0 0 1-5.4-5.5Zm-19.4-63.7a23.9 23.9 0 0 1 23.7-24h.2A23.9 23.9 0 0 1 940 298c0 13.1-23.6 53.8-23.6 53.8s-24.1-40.3-24.2-53.5Zm23.8-12.4a11.5 11.5 0 0 0-11.4 11.6 11.5 11.5 0 0 0 11.5 11.3 11.5 11.5 0 0 0 11.4-11.5 11.5 11.5 0 0 0-11.4-11.4ZM625.3 180.3a5.5 5.5 0 0 1 5.5-5.5 5.5 5.5 0 0 1 5.5 5.5 5.5 5.5 0 0 1-5.5 5.5 5.5 5.5 0 0 1-5.5-5.5Zm-19.4-63.7a23.9 23.9 0 0 1 23.8-24h.1a23.9 23.9 0 0 1 23.9 23.7c0 13.1-23.5 53.8-23.5 53.8s-24.2-40.3-24.3-53.5Zm23.8-12.4a11.5 11.5 0 0 0-11.3 11.6 11.5 11.5 0 0 0 11.4 11.3 11.5 11.5 0 0 0 11.5-11.5 11.5 11.5 0 0 0-11.5-11.4ZM575.3 172.3a5.5 5.5 0 0 1 5.5-5.5 5.5 5.5 0 0 1 5.5 5.5 5.5 5.5 0 0 1-5.5 5.5 5.5 5.5 0 0 1-5.5-5.5Zm-19.4-63.7a23.9 23.9 0 0 1 23.8-24h.1a23.9 23.9 0 0 1 23.9 23.7c0 13.1-23.5 53.8-23.5 53.8s-24.2-40.3-24.3-53.5Zm23.8-12.4a11.5 11.5 0 0 0-11.3 11.6 11.5 11.5 0 0 0 11.4 11.3 11.5 11.5 0 0 0 11.5-11.5 11.5 11.5 0 0 0-11.5-11.4ZM314.3 277.7a5.5 5.5 0 0 1 5.5-5.5 5.5 5.5 0 0 1 5.5 5.5 5.5 5.5 0 0 1-5.5 5.5 5.5 5.5 0 0 1-5.5-5.5Zm-19.4-63.8a23.9 23.9 0 0 1 23.8-24h.1a23.9 23.9 0 0 1 23.9 23.7c0 13.2-23.5 53.8-23.5 53.8S295 227.1 294.9 214Zm23.8-12.3a11.5 11.5 0 0 0-11.3 11.5 11.5 11.5 0 0 0 11.4 11.4 11.5 11.5 0 0 0 11.5-11.5 11.5 11.5 0 0 0-11.5-11.4ZM252.3 267.7a5.5 5.5 0 0 1 5.5-5.5 5.5 5.5 0 0 1 5.5 5.5 5.5 5.5 0 0 1-5.5 5.5 5.5 5.5 0 0 1-5.5-5.5Zm-19.4-63.8a23.9 23.9 0 0 1 23.8-24h.1a23.9 23.9 0 0 1 23.9 23.7c0 13.2-23.5 53.8-23.5 53.8S233 217.1 232.9 204Zm23.8-12.3a11.5 11.5 0 0 0-11.3 11.5 11.5 11.5 0 0 0 11.4 11.4 11.5 11.5 0 0 0 11.5-11.5 11.5 11.5 0 0 0-11.5-11.4ZM162.3 275.7a5.5 5.5 0 0 1 5.5-5.5 5.5 5.5 0 0 1 5.5 5.5 5.5 5.5 0 0 1-5.5 5.5 5.5 5.5 0 0 1-5.5-5.5Zm-19.4-63.8a23.9 23.9 0 0 1 23.8-24h.1a23.9 23.9 0 0 1 23.9 23.7c0 13.2-23.5 53.8-23.5 53.8S143 225.1 142.9 212Zm23.8-12.3a11.5 11.5 0 0 0-11.3 11.5 11.5 11.5 0 0 0 11.4 11.4 11.5 11.5 0 0 0 11.5-11.5 11.5 11.5 0 0 0-11.5-11.4Z" fill="#6179f8"/></svg>