<svg xmlns="http://www.w3.org/2000/svg" xmlns:xlink="http://www.w3.org/1999/xlink" width="399.06" height="420.516" viewBox="0 0 399.06 420.516">
  <defs>
    <linearGradient id="linear-gradient" x1="0.5" x2="0.5" y2="1" gradientUnits="objectBoundingBox">
      <stop offset="0" stop-color="#6179f8"/>
      <stop offset="1" stop-color="#f5d361"/>
    </linearGradient>
    <clipPath id="clip-path">
      <rect id="Rechteck_250" data-name="Rechteck 250" width="341.868" height="244.884" fill="url(#linear-gradient)"/>
    </clipPath>
    <clipPath id="clip-path-2">
      <path id="Pfad_305" data-name="Pfad 305" d="M113.459,0c10.015,0,10.032,15.565,0,15.565C103.442,15.565,103.429,0,113.459,0Z" transform="translate(-105.941)" fill="url(#linear-gradient)"/>
    </clipPath>
    <linearGradient id="linear-gradient-6" x1="-7.972" y1="-5.567" x2="-7.896" y2="-5.567" xlink:href="#linear-gradient"/>
    <clipPath id="clip-path-3">
      <rect id="Rechteck_249" data-name="Rechteck 249" width="330.341" height="231.821" fill="url(#linear-gradient)"/>
    </clipPath>
    <clipPath id="clip-path-4">
      <rect id="Rechteck_247" data-name="Rechteck 247" width="8.322" height="8.323" fill="url(#linear-gradient)"/>
    </clipPath>
    <clipPath id="clip-path-5">
      <rect id="Rechteck_248" data-name="Rechteck 248" width="7.571" height="7.571" fill="url(#linear-gradient)"/>
    </clipPath>
  </defs>
  <g id="Stars_Illustration-3" transform="matrix(0.588, -0.809, 0.809, 0.588, 0, 276.577)" clip-path="url(#clip-path)">
    <g id="Gruppe_1075" data-name="Gruppe 1075" transform="translate(145.032 87.598)">
      <g id="Gruppe_1074" data-name="Gruppe 1074" transform="translate(0)" clip-path="url(#clip-path-2)">
        <rect id="Rechteck_246" data-name="Rechteck 246" width="22.345" height="24.641" transform="translate(0.764 22.981) rotate(-113.839)" fill="url(#linear-gradient-6)"/>
      </g>
    </g>
    <g id="Gruppe_1083" data-name="Gruppe 1083" transform="translate(11.526 13.063)">
      <g id="Gruppe_1082" data-name="Gruppe 1082" clip-path="url(#clip-path-3)">
        <path id="Pfad_306" data-name="Pfad 306" d="M118.611,100a3.357,3.357,0,0,0-.559.046.309.309,0,0,1-.331-.273c-1.544-7.913-6.157-12.982-13.181-14.418a.349.349,0,0,1-.245-.4c.007-.05.012-.1.019-.153a.327.327,0,0,1,.251-.3c7.444-1.534,12.179-7.147,13.413-15.915.081.01.16.022.24.026.055,0,.11,0,.165,0a.317.317,0,0,1,.292.292c1.328,8.747,6.2,14.284,13.794,15.671a.332.332,0,0,1,.252.3v.007a.349.349,0,0,1-.252.4c-7.326,1.337-12.112,6.536-13.636,14.749l-.22-.034" transform="translate(18.655 123.651)" fill="url(#linear-gradient)"/>
        <path id="Pfad_307" data-name="Pfad 307" d="M41.412,67.088a3.837,3.837,0,0,0-.582.048.32.32,0,0,1-.345-.283c-1.61-8.242-6.413-13.521-13.728-15.017a.363.363,0,0,1-.256-.417c.007-.053.014-.106.019-.16a.344.344,0,0,1,.261-.307c7.753-1.6,12.685-7.444,13.97-16.574.082.01.166.022.251.026q.085.005.17.005a.33.33,0,0,1,.305.3c1.383,9.107,6.452,14.875,14.363,16.32a.342.342,0,0,1,.263.311l0,.007a.363.363,0,0,1-.264.412c-7.63,1.4-12.615,6.809-14.2,15.362Z" transform="translate(-10.212 -18.415)" fill="url(#linear-gradient)"/>
        <g id="Gruppe_1078" data-name="Gruppe 1078" transform="translate(226.526 204.887)" opacity="0.88">
          <g id="Gruppe_1077" data-name="Gruppe 1077" transform="translate(0)">
            <g id="Gruppe_1076" data-name="Gruppe 1076" clip-path="url(#clip-path-4)">
              <path id="Pfad_308" data-name="Pfad 308" d="M63.97,80.121a4.161,4.161,0,1,0-4.161,4.161,4.161,4.161,0,0,0,4.161-4.161" transform="translate(-55.647 -75.96)" fill="url(#linear-gradient)"/>
            </g>
          </g>
        </g>
        <g id="Gruppe_1081" data-name="Gruppe 1081" transform="translate(322.77 224.25)" opacity="0.79">
          <g id="Gruppe_1080" data-name="Gruppe 1080" transform="translate(0)">
            <g id="Gruppe_1079" data-name="Gruppe 1079" clip-path="url(#clip-path-5)">
              <path id="Pfad_309" data-name="Pfad 309" d="M0,91.03a3.786,3.786,0,1,0,3.786-3.786A3.786,3.786,0,0,0,0,91.03" transform="translate(0 -87.244)" fill="url(#linear-gradient)"/>
            </g>
          </g>
        </g>
      </g>
    </g>
  </g>
</svg>